<?xml version="1.0" encoding="utf-8" standalone="no"?>
<!DOCTYPE svg PUBLIC "-//W3C//DTD SVG 1.1//EN"
  "http://www.w3.org/Graphics/SVG/1.1/DTD/svg11.dtd">
<svg xmlns:xlink="http://www.w3.org/1999/xlink" width="432pt" height="288pt" viewBox="0 0 432 288" xmlns="http://www.w3.org/2000/svg" version="1.1">
 <metadata>
  <rdf:RDF xmlns:dc="http://purl.org/dc/elements/1.1/" xmlns:cc="http://creativecommons.org/ns#" xmlns:rdf="http://www.w3.org/1999/02/22-rdf-syntax-ns#">
   <cc:Work>
    <dc:type rdf:resource="http://purl.org/dc/dcmitype/StillImage"/>
    <dc:date>2023-04-30T15:22:24.147344</dc:date>
    <dc:format>image/svg+xml</dc:format>
    <dc:creator>
     <cc:Agent>
      <dc:title>Matplotlib v3.7.1, https://matplotlib.org/</dc:title>
     </cc:Agent>
    </dc:creator>
   </cc:Work>
  </rdf:RDF>
 </metadata>
 <defs>
  <style type="text/css">*{stroke-linejoin: round; stroke-linecap: butt}</style>
 </defs>
 <g id="figure_1">
  <g id="patch_1">
   <path d="M 0 288 
L 432 288 
L 432 0 
L 0 0 
z
" style="fill: #e8e5da"/>
  </g>
  <g id="axes_1">
   <g id="patch_2">
    <path d="M 310.104 145.44 
C 310.104 135.058053 308.28134 124.756258 304.719165 115.004555 
C 301.15699 105.252851 295.910302 96.201811 289.218441 88.264317 
C 282.526579 80.326824 274.49287 73.625436 265.48379 68.465854 
C 256.47471 63.306273 246.629363 59.768163 236.396868 58.012924 
C 226.164373 56.257686 215.702725 56.31242 205.489157 58.174631 
C 195.275588 60.036841 185.467801 63.677774 176.513202 68.931341 
C 167.558602 74.184907 159.595453 80.969988 152.987012 88.977068 
C 146.378571 96.984147 141.226876 106.089591 137.766934 115.878034 
C 134.306991 125.666477 132.592224 135.986779 132.700856 146.368157 
C 132.809488 156.749536 134.739841 167.031695 138.403858 176.745592 
C 142.067876 186.459489 147.408982 195.455135 154.183532 203.322174 
C 160.958081 211.189212 169.061471 217.806171 178.124045 222.871204 
C 187.18662 227.936237 197.068449 231.371135 207.318749 233.01921 
C 217.56905 234.667284 228.029552 234.503087 238.223077 232.534108 
C 248.416601 230.56513 258.185753 226.821772 267.084892 221.474796 
C 275.984031 216.127821 283.875748 209.259788 290.400044 201.183999 
L 221.4 145.44 
z
" style="fill: #1f77b4"/>
   </g>
   <g id="patch_3">
    <path d="M 290.400044 201.183999 
C 291.955718 199.258384 293.430101 197.268489 294.819321 195.219543 
C 296.208542 193.170596 297.511382 191.064393 298.724421 188.906465 
L 221.4 145.44 
z
" style="fill: #ff7f0e"/>
   </g>
   <g id="patch_4">
    <path d="M 298.724421 188.906465 
C 299.937459 186.748537 301.059633 184.540776 302.087994 182.288979 
C 303.116355 180.037182 304.050003 177.743324 304.886485 175.413428 
L 221.4 145.44 
z
" style="fill: #2ca02c"/>
   </g>
   <g id="patch_5">
    <path d="M 304.886485 175.413428 
C 305.722967 173.083533 306.461551 170.719642 307.100296 168.327965 
C 307.739041 165.936288 308.277387 163.51892 308.713921 161.08221 
L 221.4 145.44 
z
" style="fill: #d62728"/>
   </g>
   <g id="patch_6">
    <path d="M 308.713921 161.08221 
C 308.919326 159.935654 309.102127 158.785163 309.262217 157.631406 
C 309.422308 156.47765 309.559657 155.320852 309.674185 154.161686 
L 221.4 145.44 
z
" style="fill: #9467bd"/>
   </g>
   <g id="patch_7">
    <path d="M 309.674185 154.161686 
C 309.688501 154.016795 309.70246 153.871869 309.716062 153.726909 
C 309.729664 153.581949 309.742909 153.436956 309.755797 153.291931 
L 221.4 145.44 
z
" style="fill: #8c564b"/>
   </g>
   <g id="patch_8">
    <path d="M 309.755797 153.291931 
C 309.768685 153.146906 309.781216 153.001849 309.793389 152.856762 
C 309.805563 152.711675 309.817379 152.566559 309.828838 152.421414 
L 221.4 145.44 
z
" style="fill: #e377c2"/>
   </g>
   <g id="patch_9">
    <path d="M 309.828838 152.421414 
C 309.840298 152.276269 309.851399 152.131096 309.862144 151.985896 
C 309.872888 151.840696 309.883275 151.695471 309.893304 151.55022 
L 221.4 145.44 
z
" style="fill: #7f7f7f"/>
   </g>
   <g id="patch_10">
    <path d="M 309.893304 151.55022 
C 309.903333 151.404969 309.913005 151.259694 309.922318 151.114395 
C 309.931632 150.969097 309.940588 150.823776 309.949187 150.678433 
L 221.4 145.44 
z
" style="fill: #bcbd22"/>
   </g>
   <g id="patch_11">
    <path d="M 309.949187 150.678433 
C 309.957785 150.533091 309.966025 150.387727 309.973908 150.242344 
C 309.98179 150.096961 309.989315 149.951559 309.996481 149.806138 
L 221.4 145.44 
z
" style="fill: #17becf"/>
   </g>
   <g id="patch_12">
    <path d="M 309.996481 149.806138 
C 310.003648 149.660718 310.010456 149.515281 310.016906 149.369827 
C 310.023357 149.224373 310.029449 149.078904 310.035183 148.93342 
L 221.4 145.44 
z
" style="fill: #1f77b4"/>
   </g>
   <g id="patch_13">
    <path d="M 310.035183 148.93342 
C 310.040917 148.787937 310.046293 148.642439 310.05131 148.496929 
C 310.056328 148.351419 310.060987 148.205896 310.065288 148.060363 
L 221.4 145.44 
z
" style="fill: #ff7f0e"/>
   </g>
   <g id="patch_14">
    <path d="M 310.065288 148.060363 
C 310.069589 147.91483 310.073532 147.769287 310.077116 147.623734 
C 310.0807 147.478182 310.083926 147.332621 310.086794 147.187052 
L 221.4 145.44 
z
" style="fill: #2ca02c"/>
   </g>
   <g id="patch_15">
    <path d="M 310.086794 147.187052 
C 310.089662 147.041484 310.092171 146.895909 310.094321 146.750328 
C 310.096472 146.604747 310.098264 146.459161 310.099698 146.313572 
L 221.4 145.44 
z
" style="fill: #d62728"/>
   </g>
   <g id="patch_16">
    <path d="M 310.099698 146.313572 
C 310.101132 146.167982 310.102208 146.022389 310.102925 145.876794 
C 310.103642 145.731199 310.104 145.585603 310.104 145.440006 
L 221.4 145.44 
z
" style="fill: #9467bd"/>
   </g>
   <g id="matplotlib.axis_1"/>
   <g id="matplotlib.axis_2">
    <g id="text_1">
     <!-- Frequency Dist of Device Names -->
     <g transform="translate(104.440313 226.706406) rotate(-90) scale(0.1 -0.1)">
      <defs>
       <path id="DejaVuSans-46" d="M 628 4666 
L 3309 4666 
L 3309 4134 
L 1259 4134 
L 1259 2759 
L 3109 2759 
L 3109 2228 
L 1259 2228 
L 1259 0 
L 628 0 
L 628 4666 
z
" transform="scale(0.015625)"/>
       <path id="DejaVuSans-72" d="M 2631 2963 
Q 2534 3019 2420 3045 
Q 2306 3072 2169 3072 
Q 1681 3072 1420 2755 
Q 1159 2438 1159 1844 
L 1159 0 
L 581 0 
L 581 3500 
L 1159 3500 
L 1159 2956 
Q 1341 3275 1631 3429 
Q 1922 3584 2338 3584 
Q 2397 3584 2469 3576 
Q 2541 3569 2628 3553 
L 2631 2963 
z
" transform="scale(0.015625)"/>
       <path id="DejaVuSans-65" d="M 3597 1894 
L 3597 1613 
L 953 1613 
Q 991 1019 1311 708 
Q 1631 397 2203 397 
Q 2534 397 2845 478 
Q 3156 559 3463 722 
L 3463 178 
Q 3153 47 2828 -22 
Q 2503 -91 2169 -91 
Q 1331 -91 842 396 
Q 353 884 353 1716 
Q 353 2575 817 3079 
Q 1281 3584 2069 3584 
Q 2775 3584 3186 3129 
Q 3597 2675 3597 1894 
z
M 3022 2063 
Q 3016 2534 2758 2815 
Q 2500 3097 2075 3097 
Q 1594 3097 1305 2825 
Q 1016 2553 972 2059 
L 3022 2063 
z
" transform="scale(0.015625)"/>
       <path id="DejaVuSans-71" d="M 947 1747 
Q 947 1113 1208 752 
Q 1469 391 1925 391 
Q 2381 391 2643 752 
Q 2906 1113 2906 1747 
Q 2906 2381 2643 2742 
Q 2381 3103 1925 3103 
Q 1469 3103 1208 2742 
Q 947 2381 947 1747 
z
M 2906 525 
Q 2725 213 2448 61 
Q 2172 -91 1784 -91 
Q 1150 -91 751 415 
Q 353 922 353 1747 
Q 353 2572 751 3078 
Q 1150 3584 1784 3584 
Q 2172 3584 2448 3432 
Q 2725 3281 2906 2969 
L 2906 3500 
L 3481 3500 
L 3481 -1331 
L 2906 -1331 
L 2906 525 
z
" transform="scale(0.015625)"/>
       <path id="DejaVuSans-75" d="M 544 1381 
L 544 3500 
L 1119 3500 
L 1119 1403 
Q 1119 906 1312 657 
Q 1506 409 1894 409 
Q 2359 409 2629 706 
Q 2900 1003 2900 1516 
L 2900 3500 
L 3475 3500 
L 3475 0 
L 2900 0 
L 2900 538 
Q 2691 219 2414 64 
Q 2138 -91 1772 -91 
Q 1169 -91 856 284 
Q 544 659 544 1381 
z
M 1991 3584 
L 1991 3584 
z
" transform="scale(0.015625)"/>
       <path id="DejaVuSans-6e" d="M 3513 2113 
L 3513 0 
L 2938 0 
L 2938 2094 
Q 2938 2591 2744 2837 
Q 2550 3084 2163 3084 
Q 1697 3084 1428 2787 
Q 1159 2491 1159 1978 
L 1159 0 
L 581 0 
L 581 3500 
L 1159 3500 
L 1159 2956 
Q 1366 3272 1645 3428 
Q 1925 3584 2291 3584 
Q 2894 3584 3203 3211 
Q 3513 2838 3513 2113 
z
" transform="scale(0.015625)"/>
       <path id="DejaVuSans-63" d="M 3122 3366 
L 3122 2828 
Q 2878 2963 2633 3030 
Q 2388 3097 2138 3097 
Q 1578 3097 1268 2742 
Q 959 2388 959 1747 
Q 959 1106 1268 751 
Q 1578 397 2138 397 
Q 2388 397 2633 464 
Q 2878 531 3122 666 
L 3122 134 
Q 2881 22 2623 -34 
Q 2366 -91 2075 -91 
Q 1284 -91 818 406 
Q 353 903 353 1747 
Q 353 2603 823 3093 
Q 1294 3584 2113 3584 
Q 2378 3584 2631 3529 
Q 2884 3475 3122 3366 
z
" transform="scale(0.015625)"/>
       <path id="DejaVuSans-79" d="M 2059 -325 
Q 1816 -950 1584 -1140 
Q 1353 -1331 966 -1331 
L 506 -1331 
L 506 -850 
L 844 -850 
Q 1081 -850 1212 -737 
Q 1344 -625 1503 -206 
L 1606 56 
L 191 3500 
L 800 3500 
L 1894 763 
L 2988 3500 
L 3597 3500 
L 2059 -325 
z
" transform="scale(0.015625)"/>
       <path id="DejaVuSans-20" transform="scale(0.015625)"/>
       <path id="DejaVuSans-44" d="M 1259 4147 
L 1259 519 
L 2022 519 
Q 2988 519 3436 956 
Q 3884 1394 3884 2338 
Q 3884 3275 3436 3711 
Q 2988 4147 2022 4147 
L 1259 4147 
z
M 628 4666 
L 1925 4666 
Q 3281 4666 3915 4102 
Q 4550 3538 4550 2338 
Q 4550 1131 3912 565 
Q 3275 0 1925 0 
L 628 0 
L 628 4666 
z
" transform="scale(0.015625)"/>
       <path id="DejaVuSans-69" d="M 603 3500 
L 1178 3500 
L 1178 0 
L 603 0 
L 603 3500 
z
M 603 4863 
L 1178 4863 
L 1178 4134 
L 603 4134 
L 603 4863 
z
" transform="scale(0.015625)"/>
       <path id="DejaVuSans-73" d="M 2834 3397 
L 2834 2853 
Q 2591 2978 2328 3040 
Q 2066 3103 1784 3103 
Q 1356 3103 1142 2972 
Q 928 2841 928 2578 
Q 928 2378 1081 2264 
Q 1234 2150 1697 2047 
L 1894 2003 
Q 2506 1872 2764 1633 
Q 3022 1394 3022 966 
Q 3022 478 2636 193 
Q 2250 -91 1575 -91 
Q 1294 -91 989 -36 
Q 684 19 347 128 
L 347 722 
Q 666 556 975 473 
Q 1284 391 1588 391 
Q 1994 391 2212 530 
Q 2431 669 2431 922 
Q 2431 1156 2273 1281 
Q 2116 1406 1581 1522 
L 1381 1569 
Q 847 1681 609 1914 
Q 372 2147 372 2553 
Q 372 3047 722 3315 
Q 1072 3584 1716 3584 
Q 2034 3584 2315 3537 
Q 2597 3491 2834 3397 
z
" transform="scale(0.015625)"/>
       <path id="DejaVuSans-74" d="M 1172 4494 
L 1172 3500 
L 2356 3500 
L 2356 3053 
L 1172 3053 
L 1172 1153 
Q 1172 725 1289 603 
Q 1406 481 1766 481 
L 2356 481 
L 2356 0 
L 1766 0 
Q 1100 0 847 248 
Q 594 497 594 1153 
L 594 3053 
L 172 3053 
L 172 3500 
L 594 3500 
L 594 4494 
L 1172 4494 
z
" transform="scale(0.015625)"/>
       <path id="DejaVuSans-6f" d="M 1959 3097 
Q 1497 3097 1228 2736 
Q 959 2375 959 1747 
Q 959 1119 1226 758 
Q 1494 397 1959 397 
Q 2419 397 2687 759 
Q 2956 1122 2956 1747 
Q 2956 2369 2687 2733 
Q 2419 3097 1959 3097 
z
M 1959 3584 
Q 2709 3584 3137 3096 
Q 3566 2609 3566 1747 
Q 3566 888 3137 398 
Q 2709 -91 1959 -91 
Q 1206 -91 779 398 
Q 353 888 353 1747 
Q 353 2609 779 3096 
Q 1206 3584 1959 3584 
z
" transform="scale(0.015625)"/>
       <path id="DejaVuSans-66" d="M 2375 4863 
L 2375 4384 
L 1825 4384 
Q 1516 4384 1395 4259 
Q 1275 4134 1275 3809 
L 1275 3500 
L 2222 3500 
L 2222 3053 
L 1275 3053 
L 1275 0 
L 697 0 
L 697 3053 
L 147 3053 
L 147 3500 
L 697 3500 
L 697 3744 
Q 697 4328 969 4595 
Q 1241 4863 1831 4863 
L 2375 4863 
z
" transform="scale(0.015625)"/>
       <path id="DejaVuSans-76" d="M 191 3500 
L 800 3500 
L 1894 563 
L 2988 3500 
L 3597 3500 
L 2284 0 
L 1503 0 
L 191 3500 
z
" transform="scale(0.015625)"/>
       <path id="DejaVuSans-4e" d="M 628 4666 
L 1478 4666 
L 3547 763 
L 3547 4666 
L 4159 4666 
L 4159 0 
L 3309 0 
L 1241 3903 
L 1241 0 
L 628 0 
L 628 4666 
z
" transform="scale(0.015625)"/>
       <path id="DejaVuSans-61" d="M 2194 1759 
Q 1497 1759 1228 1600 
Q 959 1441 959 1056 
Q 959 750 1161 570 
Q 1363 391 1709 391 
Q 2188 391 2477 730 
Q 2766 1069 2766 1631 
L 2766 1759 
L 2194 1759 
z
M 3341 1997 
L 3341 0 
L 2766 0 
L 2766 531 
Q 2569 213 2275 61 
Q 1981 -91 1556 -91 
Q 1019 -91 701 211 
Q 384 513 384 1019 
Q 384 1609 779 1909 
Q 1175 2209 1959 2209 
L 2766 2209 
L 2766 2266 
Q 2766 2663 2505 2880 
Q 2244 3097 1772 3097 
Q 1472 3097 1187 3025 
Q 903 2953 641 2809 
L 641 3341 
Q 956 3463 1253 3523 
Q 1550 3584 1831 3584 
Q 2591 3584 2966 3190 
Q 3341 2797 3341 1997 
z
" transform="scale(0.015625)"/>
       <path id="DejaVuSans-6d" d="M 3328 2828 
Q 3544 3216 3844 3400 
Q 4144 3584 4550 3584 
Q 5097 3584 5394 3201 
Q 5691 2819 5691 2113 
L 5691 0 
L 5113 0 
L 5113 2094 
Q 5113 2597 4934 2840 
Q 4756 3084 4391 3084 
Q 3944 3084 3684 2787 
Q 3425 2491 3425 1978 
L 3425 0 
L 2847 0 
L 2847 2094 
Q 2847 2600 2669 2842 
Q 2491 3084 2119 3084 
Q 1678 3084 1418 2786 
Q 1159 2488 1159 1978 
L 1159 0 
L 581 0 
L 581 3500 
L 1159 3500 
L 1159 2956 
Q 1356 3278 1631 3431 
Q 1906 3584 2284 3584 
Q 2666 3584 2933 3390 
Q 3200 3197 3328 2828 
z
" transform="scale(0.015625)"/>
      </defs>
      <use xlink:href="#DejaVuSans-46"/>
      <use xlink:href="#DejaVuSans-72" x="50.269531"/>
      <use xlink:href="#DejaVuSans-65" x="89.132812"/>
      <use xlink:href="#DejaVuSans-71" x="150.65625"/>
      <use xlink:href="#DejaVuSans-75" x="214.132812"/>
      <use xlink:href="#DejaVuSans-65" x="277.511719"/>
      <use xlink:href="#DejaVuSans-6e" x="339.035156"/>
      <use xlink:href="#DejaVuSans-63" x="402.414062"/>
      <use xlink:href="#DejaVuSans-79" x="457.394531"/>
      <use xlink:href="#DejaVuSans-20" x="516.574219"/>
      <use xlink:href="#DejaVuSans-44" x="548.361328"/>
      <use xlink:href="#DejaVuSans-69" x="625.363281"/>
      <use xlink:href="#DejaVuSans-73" x="653.146484"/>
      <use xlink:href="#DejaVuSans-74" x="705.246094"/>
      <use xlink:href="#DejaVuSans-20" x="744.455078"/>
      <use xlink:href="#DejaVuSans-6f" x="776.242188"/>
      <use xlink:href="#DejaVuSans-66" x="837.423828"/>
      <use xlink:href="#DejaVuSans-20" x="872.628906"/>
      <use xlink:href="#DejaVuSans-44" x="904.416016"/>
      <use xlink:href="#DejaVuSans-65" x="981.417969"/>
      <use xlink:href="#DejaVuSans-76" x="1042.941406"/>
      <use xlink:href="#DejaVuSans-69" x="1102.121094"/>
      <use xlink:href="#DejaVuSans-63" x="1129.904297"/>
      <use xlink:href="#DejaVuSans-65" x="1184.884766"/>
      <use xlink:href="#DejaVuSans-20" x="1246.408203"/>
      <use xlink:href="#DejaVuSans-4e" x="1278.195312"/>
      <use xlink:href="#DejaVuSans-61" x="1353"/>
      <use xlink:href="#DejaVuSans-6d" x="1414.279297"/>
      <use xlink:href="#DejaVuSans-65" x="1511.691406"/>
      <use xlink:href="#DejaVuSans-73" x="1573.214844"/>
     </g>
    </g>
   </g>
   <g id="text_2">
    <!-- Device Names -->
    <g transform="translate(178.144687 28.56) scale(0.12 -0.12)">
     <use xlink:href="#DejaVuSans-44"/>
     <use xlink:href="#DejaVuSans-65" x="77.001953"/>
     <use xlink:href="#DejaVuSans-76" x="138.525391"/>
     <use xlink:href="#DejaVuSans-69" x="197.705078"/>
     <use xlink:href="#DejaVuSans-63" x="225.488281"/>
     <use xlink:href="#DejaVuSans-65" x="280.46875"/>
     <use xlink:href="#DejaVuSans-20" x="341.992188"/>
     <use xlink:href="#DejaVuSans-4e" x="373.779297"/>
     <use xlink:href="#DejaVuSans-61" x="448.583984"/>
     <use xlink:href="#DejaVuSans-6d" x="509.863281"/>
     <use xlink:href="#DejaVuSans-65" x="607.275391"/>
     <use xlink:href="#DejaVuSans-73" x="668.798828"/>
    </g>
   </g>
   <g id="legend_1">
    <g id="patch_17">
     <path d="M 335.78 141.306875 
L 433.114375 141.306875 
Q 434.114375 141.306875 434.114375 140.306875 
L 434.114375 38.06 
Q 434.114375 37.06 433.114375 37.06 
L 335.78 37.06 
Q 334.78 37.06 334.78 38.06 
L 334.78 140.306875 
Q 334.78 141.306875 335.78 141.306875 
z
" style="fill: #ffffff; opacity: 0.8; stroke: #cccccc; stroke-linejoin: miter"/>
    </g>
    <g id="patch_18">
     <path d="M 336.78 42.859219 
L 346.78 42.859219 
L 346.78 39.359219 
L 336.78 39.359219 
z
" style="fill: #ff7f0e"/>
    </g>
    <g id="text_3">
     <!-- UVA Guest -->
     <g transform="translate(350.78 42.859219) scale(0.05 -0.05)">
      <defs>
       <path id="DejaVuSans-55" d="M 556 4666 
L 1191 4666 
L 1191 1831 
Q 1191 1081 1462 751 
Q 1734 422 2344 422 
Q 2950 422 3222 751 
Q 3494 1081 3494 1831 
L 3494 4666 
L 4128 4666 
L 4128 1753 
Q 4128 841 3676 375 
Q 3225 -91 2344 -91 
Q 1459 -91 1007 375 
Q 556 841 556 1753 
L 556 4666 
z
" transform="scale(0.015625)"/>
       <path id="DejaVuSans-56" d="M 1831 0 
L 50 4666 
L 709 4666 
L 2188 738 
L 3669 4666 
L 4325 4666 
L 2547 0 
L 1831 0 
z
" transform="scale(0.015625)"/>
       <path id="DejaVuSans-41" d="M 2188 4044 
L 1331 1722 
L 3047 1722 
L 2188 4044 
z
M 1831 4666 
L 2547 4666 
L 4325 0 
L 3669 0 
L 3244 1197 
L 1141 1197 
L 716 0 
L 50 0 
L 1831 4666 
z
" transform="scale(0.015625)"/>
       <path id="DejaVuSans-47" d="M 3809 666 
L 3809 1919 
L 2778 1919 
L 2778 2438 
L 4434 2438 
L 4434 434 
Q 4069 175 3628 42 
Q 3188 -91 2688 -91 
Q 1594 -91 976 548 
Q 359 1188 359 2328 
Q 359 3472 976 4111 
Q 1594 4750 2688 4750 
Q 3144 4750 3555 4637 
Q 3966 4525 4313 4306 
L 4313 3634 
Q 3963 3931 3569 4081 
Q 3175 4231 2741 4231 
Q 1884 4231 1454 3753 
Q 1025 3275 1025 2328 
Q 1025 1384 1454 906 
Q 1884 428 2741 428 
Q 3075 428 3337 486 
Q 3600 544 3809 666 
z
" transform="scale(0.015625)"/>
      </defs>
      <use xlink:href="#DejaVuSans-55"/>
      <use xlink:href="#DejaVuSans-56" x="73.193359"/>
      <use xlink:href="#DejaVuSans-41" x="135.226562"/>
      <use xlink:href="#DejaVuSans-20" x="203.634766"/>
      <use xlink:href="#DejaVuSans-47" x="235.421875"/>
      <use xlink:href="#DejaVuSans-75" x="312.912109"/>
      <use xlink:href="#DejaVuSans-65" x="376.291016"/>
      <use xlink:href="#DejaVuSans-73" x="437.814453"/>
      <use xlink:href="#DejaVuSans-74" x="489.914062"/>
     </g>
    </g>
    <g id="patch_19">
     <path d="M 336.78 50.198281 
L 346.78 50.198281 
L 346.78 46.698281 
L 336.78 46.698281 
z
" style="fill: #2ca02c"/>
    </g>
    <g id="text_4">
     <!-- eduroam -->
     <g transform="translate(350.78 50.198281) scale(0.05 -0.05)">
      <defs>
       <path id="DejaVuSans-64" d="M 2906 2969 
L 2906 4863 
L 3481 4863 
L 3481 0 
L 2906 0 
L 2906 525 
Q 2725 213 2448 61 
Q 2172 -91 1784 -91 
Q 1150 -91 751 415 
Q 353 922 353 1747 
Q 353 2572 751 3078 
Q 1150 3584 1784 3584 
Q 2172 3584 2448 3432 
Q 2725 3281 2906 2969 
z
M 947 1747 
Q 947 1113 1208 752 
Q 1469 391 1925 391 
Q 2381 391 2643 752 
Q 2906 1113 2906 1747 
Q 2906 2381 2643 2742 
Q 2381 3103 1925 3103 
Q 1469 3103 1208 2742 
Q 947 2381 947 1747 
z
" transform="scale(0.015625)"/>
      </defs>
      <use xlink:href="#DejaVuSans-65"/>
      <use xlink:href="#DejaVuSans-64" x="61.523438"/>
      <use xlink:href="#DejaVuSans-75" x="125"/>
      <use xlink:href="#DejaVuSans-72" x="188.378906"/>
      <use xlink:href="#DejaVuSans-6f" x="227.242188"/>
      <use xlink:href="#DejaVuSans-61" x="288.423828"/>
      <use xlink:href="#DejaVuSans-6d" x="349.703125"/>
     </g>
    </g>
    <g id="patch_20">
     <path d="M 336.78 57.537344 
L 346.78 57.537344 
L 346.78 54.037344 
L 336.78 54.037344 
z
" style="fill: #d62728"/>
    </g>
    <g id="text_5">
     <!-- UVA WiFi Setup -->
     <g transform="translate(350.78 57.537344) scale(0.05 -0.05)">
      <defs>
       <path id="DejaVuSans-57" d="M 213 4666 
L 850 4666 
L 1831 722 
L 2809 4666 
L 3519 4666 
L 4500 722 
L 5478 4666 
L 6119 4666 
L 4947 0 
L 4153 0 
L 3169 4050 
L 2175 0 
L 1381 0 
L 213 4666 
z
" transform="scale(0.015625)"/>
       <path id="DejaVuSans-53" d="M 3425 4513 
L 3425 3897 
Q 3066 4069 2747 4153 
Q 2428 4238 2131 4238 
Q 1616 4238 1336 4038 
Q 1056 3838 1056 3469 
Q 1056 3159 1242 3001 
Q 1428 2844 1947 2747 
L 2328 2669 
Q 3034 2534 3370 2195 
Q 3706 1856 3706 1288 
Q 3706 609 3251 259 
Q 2797 -91 1919 -91 
Q 1588 -91 1214 -16 
Q 841 59 441 206 
L 441 856 
Q 825 641 1194 531 
Q 1563 422 1919 422 
Q 2459 422 2753 634 
Q 3047 847 3047 1241 
Q 3047 1584 2836 1778 
Q 2625 1972 2144 2069 
L 1759 2144 
Q 1053 2284 737 2584 
Q 422 2884 422 3419 
Q 422 4038 858 4394 
Q 1294 4750 2059 4750 
Q 2388 4750 2728 4690 
Q 3069 4631 3425 4513 
z
" transform="scale(0.015625)"/>
       <path id="DejaVuSans-70" d="M 1159 525 
L 1159 -1331 
L 581 -1331 
L 581 3500 
L 1159 3500 
L 1159 2969 
Q 1341 3281 1617 3432 
Q 1894 3584 2278 3584 
Q 2916 3584 3314 3078 
Q 3713 2572 3713 1747 
Q 3713 922 3314 415 
Q 2916 -91 2278 -91 
Q 1894 -91 1617 61 
Q 1341 213 1159 525 
z
M 3116 1747 
Q 3116 2381 2855 2742 
Q 2594 3103 2138 3103 
Q 1681 3103 1420 2742 
Q 1159 2381 1159 1747 
Q 1159 1113 1420 752 
Q 1681 391 2138 391 
Q 2594 391 2855 752 
Q 3116 1113 3116 1747 
z
" transform="scale(0.015625)"/>
      </defs>
      <use xlink:href="#DejaVuSans-55"/>
      <use xlink:href="#DejaVuSans-56" x="73.193359"/>
      <use xlink:href="#DejaVuSans-41" x="135.226562"/>
      <use xlink:href="#DejaVuSans-20" x="203.634766"/>
      <use xlink:href="#DejaVuSans-57" x="235.421875"/>
      <use xlink:href="#DejaVuSans-69" x="332.048828"/>
      <use xlink:href="#DejaVuSans-46" x="359.832031"/>
      <use xlink:href="#DejaVuSans-69" x="410.101562"/>
      <use xlink:href="#DejaVuSans-20" x="437.884766"/>
      <use xlink:href="#DejaVuSans-53" x="469.671875"/>
      <use xlink:href="#DejaVuSans-65" x="533.148438"/>
      <use xlink:href="#DejaVuSans-74" x="594.671875"/>
      <use xlink:href="#DejaVuSans-75" x="633.880859"/>
      <use xlink:href="#DejaVuSans-70" x="697.259766"/>
     </g>
    </g>
    <g id="patch_21">
     <path d="M 336.78 64.876406 
L 346.78 64.876406 
L 346.78 61.376406 
L 336.78 61.376406 
z
" style="fill: #9467bd"/>
    </g>
    <g id="text_6">
     <!-- wahoo -->
     <g transform="translate(350.78 64.876406) scale(0.05 -0.05)">
      <defs>
       <path id="DejaVuSans-77" d="M 269 3500 
L 844 3500 
L 1563 769 
L 2278 3500 
L 2956 3500 
L 3675 769 
L 4391 3500 
L 4966 3500 
L 4050 0 
L 3372 0 
L 2619 2869 
L 1863 0 
L 1184 0 
L 269 3500 
z
" transform="scale(0.015625)"/>
       <path id="DejaVuSans-68" d="M 3513 2113 
L 3513 0 
L 2938 0 
L 2938 2094 
Q 2938 2591 2744 2837 
Q 2550 3084 2163 3084 
Q 1697 3084 1428 2787 
Q 1159 2491 1159 1978 
L 1159 0 
L 581 0 
L 581 4863 
L 1159 4863 
L 1159 2956 
Q 1366 3272 1645 3428 
Q 1925 3584 2291 3584 
Q 2894 3584 3203 3211 
Q 3513 2838 3513 2113 
z
" transform="scale(0.015625)"/>
      </defs>
      <use xlink:href="#DejaVuSans-77"/>
      <use xlink:href="#DejaVuSans-61" x="81.787109"/>
      <use xlink:href="#DejaVuSans-68" x="143.066406"/>
      <use xlink:href="#DejaVuSans-6f" x="206.445312"/>
      <use xlink:href="#DejaVuSans-6f" x="267.626953"/>
     </g>
    </g>
    <g id="patch_22">
     <path d="M 336.78 72.215469 
L 346.78 72.215469 
L 346.78 68.715469 
L 336.78 68.715469 
z
" style="fill: #8c564b"/>
    </g>
    <g id="text_7">
     <!-- 6C:F3:7F:E7:B9:70 -->
     <g transform="translate(350.78 72.215469) scale(0.05 -0.05)">
      <defs>
       <path id="DejaVuSans-36" d="M 2113 2584 
Q 1688 2584 1439 2293 
Q 1191 2003 1191 1497 
Q 1191 994 1439 701 
Q 1688 409 2113 409 
Q 2538 409 2786 701 
Q 3034 994 3034 1497 
Q 3034 2003 2786 2293 
Q 2538 2584 2113 2584 
z
M 3366 4563 
L 3366 3988 
Q 3128 4100 2886 4159 
Q 2644 4219 2406 4219 
Q 1781 4219 1451 3797 
Q 1122 3375 1075 2522 
Q 1259 2794 1537 2939 
Q 1816 3084 2150 3084 
Q 2853 3084 3261 2657 
Q 3669 2231 3669 1497 
Q 3669 778 3244 343 
Q 2819 -91 2113 -91 
Q 1303 -91 875 529 
Q 447 1150 447 2328 
Q 447 3434 972 4092 
Q 1497 4750 2381 4750 
Q 2619 4750 2861 4703 
Q 3103 4656 3366 4563 
z
" transform="scale(0.015625)"/>
       <path id="DejaVuSans-43" d="M 4122 4306 
L 4122 3641 
Q 3803 3938 3442 4084 
Q 3081 4231 2675 4231 
Q 1875 4231 1450 3742 
Q 1025 3253 1025 2328 
Q 1025 1406 1450 917 
Q 1875 428 2675 428 
Q 3081 428 3442 575 
Q 3803 722 4122 1019 
L 4122 359 
Q 3791 134 3420 21 
Q 3050 -91 2638 -91 
Q 1578 -91 968 557 
Q 359 1206 359 2328 
Q 359 3453 968 4101 
Q 1578 4750 2638 4750 
Q 3056 4750 3426 4639 
Q 3797 4528 4122 4306 
z
" transform="scale(0.015625)"/>
       <path id="DejaVuSans-3a" d="M 750 794 
L 1409 794 
L 1409 0 
L 750 0 
L 750 794 
z
M 750 3309 
L 1409 3309 
L 1409 2516 
L 750 2516 
L 750 3309 
z
" transform="scale(0.015625)"/>
       <path id="DejaVuSans-33" d="M 2597 2516 
Q 3050 2419 3304 2112 
Q 3559 1806 3559 1356 
Q 3559 666 3084 287 
Q 2609 -91 1734 -91 
Q 1441 -91 1130 -33 
Q 819 25 488 141 
L 488 750 
Q 750 597 1062 519 
Q 1375 441 1716 441 
Q 2309 441 2620 675 
Q 2931 909 2931 1356 
Q 2931 1769 2642 2001 
Q 2353 2234 1838 2234 
L 1294 2234 
L 1294 2753 
L 1863 2753 
Q 2328 2753 2575 2939 
Q 2822 3125 2822 3475 
Q 2822 3834 2567 4026 
Q 2313 4219 1838 4219 
Q 1578 4219 1281 4162 
Q 984 4106 628 3988 
L 628 4550 
Q 988 4650 1302 4700 
Q 1616 4750 1894 4750 
Q 2613 4750 3031 4423 
Q 3450 4097 3450 3541 
Q 3450 3153 3228 2886 
Q 3006 2619 2597 2516 
z
" transform="scale(0.015625)"/>
       <path id="DejaVuSans-37" d="M 525 4666 
L 3525 4666 
L 3525 4397 
L 1831 0 
L 1172 0 
L 2766 4134 
L 525 4134 
L 525 4666 
z
" transform="scale(0.015625)"/>
       <path id="DejaVuSans-45" d="M 628 4666 
L 3578 4666 
L 3578 4134 
L 1259 4134 
L 1259 2753 
L 3481 2753 
L 3481 2222 
L 1259 2222 
L 1259 531 
L 3634 531 
L 3634 0 
L 628 0 
L 628 4666 
z
" transform="scale(0.015625)"/>
       <path id="DejaVuSans-42" d="M 1259 2228 
L 1259 519 
L 2272 519 
Q 2781 519 3026 730 
Q 3272 941 3272 1375 
Q 3272 1813 3026 2020 
Q 2781 2228 2272 2228 
L 1259 2228 
z
M 1259 4147 
L 1259 2741 
L 2194 2741 
Q 2656 2741 2882 2914 
Q 3109 3088 3109 3444 
Q 3109 3797 2882 3972 
Q 2656 4147 2194 4147 
L 1259 4147 
z
M 628 4666 
L 2241 4666 
Q 2963 4666 3353 4366 
Q 3744 4066 3744 3513 
Q 3744 3084 3544 2831 
Q 3344 2578 2956 2516 
Q 3422 2416 3680 2098 
Q 3938 1781 3938 1306 
Q 3938 681 3513 340 
Q 3088 0 2303 0 
L 628 0 
L 628 4666 
z
" transform="scale(0.015625)"/>
       <path id="DejaVuSans-39" d="M 703 97 
L 703 672 
Q 941 559 1184 500 
Q 1428 441 1663 441 
Q 2288 441 2617 861 
Q 2947 1281 2994 2138 
Q 2813 1869 2534 1725 
Q 2256 1581 1919 1581 
Q 1219 1581 811 2004 
Q 403 2428 403 3163 
Q 403 3881 828 4315 
Q 1253 4750 1959 4750 
Q 2769 4750 3195 4129 
Q 3622 3509 3622 2328 
Q 3622 1225 3098 567 
Q 2575 -91 1691 -91 
Q 1453 -91 1209 -44 
Q 966 3 703 97 
z
M 1959 2075 
Q 2384 2075 2632 2365 
Q 2881 2656 2881 3163 
Q 2881 3666 2632 3958 
Q 2384 4250 1959 4250 
Q 1534 4250 1286 3958 
Q 1038 3666 1038 3163 
Q 1038 2656 1286 2365 
Q 1534 2075 1959 2075 
z
" transform="scale(0.015625)"/>
       <path id="DejaVuSans-30" d="M 2034 4250 
Q 1547 4250 1301 3770 
Q 1056 3291 1056 2328 
Q 1056 1369 1301 889 
Q 1547 409 2034 409 
Q 2525 409 2770 889 
Q 3016 1369 3016 2328 
Q 3016 3291 2770 3770 
Q 2525 4250 2034 4250 
z
M 2034 4750 
Q 2819 4750 3233 4129 
Q 3647 3509 3647 2328 
Q 3647 1150 3233 529 
Q 2819 -91 2034 -91 
Q 1250 -91 836 529 
Q 422 1150 422 2328 
Q 422 3509 836 4129 
Q 1250 4750 2034 4750 
z
" transform="scale(0.015625)"/>
      </defs>
      <use xlink:href="#DejaVuSans-36"/>
      <use xlink:href="#DejaVuSans-43" x="63.623047"/>
      <use xlink:href="#DejaVuSans-3a" x="133.447266"/>
      <use xlink:href="#DejaVuSans-46" x="167.138672"/>
      <use xlink:href="#DejaVuSans-33" x="224.658203"/>
      <use xlink:href="#DejaVuSans-3a" x="288.28125"/>
      <use xlink:href="#DejaVuSans-37" x="321.972656"/>
      <use xlink:href="#DejaVuSans-46" x="385.595703"/>
      <use xlink:href="#DejaVuSans-3a" x="435.365234"/>
      <use xlink:href="#DejaVuSans-45" x="469.056641"/>
      <use xlink:href="#DejaVuSans-37" x="532.240234"/>
      <use xlink:href="#DejaVuSans-3a" x="595.863281"/>
      <use xlink:href="#DejaVuSans-42" x="629.554688"/>
      <use xlink:href="#DejaVuSans-39" x="698.158203"/>
      <use xlink:href="#DejaVuSans-3a" x="761.78125"/>
      <use xlink:href="#DejaVuSans-37" x="795.472656"/>
      <use xlink:href="#DejaVuSans-30" x="859.095703"/>
     </g>
    </g>
    <g id="patch_23">
     <path d="M 336.78 79.554531 
L 346.78 79.554531 
L 346.78 76.054531 
L 336.78 76.054531 
z
" style="fill: #e377c2"/>
    </g>
    <g id="text_8">
     <!-- 6C:F3:7F:E7:DA:50 -->
     <g transform="translate(350.78 79.554531) scale(0.05 -0.05)">
      <defs>
       <path id="DejaVuSans-35" d="M 691 4666 
L 3169 4666 
L 3169 4134 
L 1269 4134 
L 1269 2991 
Q 1406 3038 1543 3061 
Q 1681 3084 1819 3084 
Q 2600 3084 3056 2656 
Q 3513 2228 3513 1497 
Q 3513 744 3044 326 
Q 2575 -91 1722 -91 
Q 1428 -91 1123 -41 
Q 819 9 494 109 
L 494 744 
Q 775 591 1075 516 
Q 1375 441 1709 441 
Q 2250 441 2565 725 
Q 2881 1009 2881 1497 
Q 2881 1984 2565 2268 
Q 2250 2553 1709 2553 
Q 1456 2553 1204 2497 
Q 953 2441 691 2322 
L 691 4666 
z
" transform="scale(0.015625)"/>
      </defs>
      <use xlink:href="#DejaVuSans-36"/>
      <use xlink:href="#DejaVuSans-43" x="63.623047"/>
      <use xlink:href="#DejaVuSans-3a" x="133.447266"/>
      <use xlink:href="#DejaVuSans-46" x="167.138672"/>
      <use xlink:href="#DejaVuSans-33" x="224.658203"/>
      <use xlink:href="#DejaVuSans-3a" x="288.28125"/>
      <use xlink:href="#DejaVuSans-37" x="321.972656"/>
      <use xlink:href="#DejaVuSans-46" x="385.595703"/>
      <use xlink:href="#DejaVuSans-3a" x="435.365234"/>
      <use xlink:href="#DejaVuSans-45" x="469.056641"/>
      <use xlink:href="#DejaVuSans-37" x="532.240234"/>
      <use xlink:href="#DejaVuSans-3a" x="595.863281"/>
      <use xlink:href="#DejaVuSans-44" x="629.554688"/>
      <use xlink:href="#DejaVuSans-41" x="704.806641"/>
      <use xlink:href="#DejaVuSans-3a" x="771.464844"/>
      <use xlink:href="#DejaVuSans-35" x="805.15625"/>
      <use xlink:href="#DejaVuSans-30" x="868.779297"/>
     </g>
    </g>
    <g id="patch_24">
     <path d="M 336.78 86.893594 
L 346.78 86.893594 
L 346.78 83.393594 
L 336.78 83.393594 
z
" style="fill: #7f7f7f"/>
    </g>
    <g id="text_9">
     <!-- 6C:F3:7F:E7:DB:50 -->
     <g transform="translate(350.78 86.893594) scale(0.05 -0.05)">
      <use xlink:href="#DejaVuSans-36"/>
      <use xlink:href="#DejaVuSans-43" x="63.623047"/>
      <use xlink:href="#DejaVuSans-3a" x="133.447266"/>
      <use xlink:href="#DejaVuSans-46" x="167.138672"/>
      <use xlink:href="#DejaVuSans-33" x="224.658203"/>
      <use xlink:href="#DejaVuSans-3a" x="288.28125"/>
      <use xlink:href="#DejaVuSans-37" x="321.972656"/>
      <use xlink:href="#DejaVuSans-46" x="385.595703"/>
      <use xlink:href="#DejaVuSans-3a" x="435.365234"/>
      <use xlink:href="#DejaVuSans-45" x="469.056641"/>
      <use xlink:href="#DejaVuSans-37" x="532.240234"/>
      <use xlink:href="#DejaVuSans-3a" x="595.863281"/>
      <use xlink:href="#DejaVuSans-44" x="629.554688"/>
      <use xlink:href="#DejaVuSans-42" x="706.556641"/>
      <use xlink:href="#DejaVuSans-3a" x="775.160156"/>
      <use xlink:href="#DejaVuSans-35" x="808.851562"/>
      <use xlink:href="#DejaVuSans-30" x="872.474609"/>
     </g>
    </g>
    <g id="patch_25">
     <path d="M 336.78 94.232656 
L 346.78 94.232656 
L 346.78 90.732656 
L 336.78 90.732656 
z
" style="fill: #bcbd22"/>
    </g>
    <g id="text_10">
     <!-- 6C:F3:7F:E7:CF:10 -->
     <g transform="translate(350.78 94.232656) scale(0.05 -0.05)">
      <defs>
       <path id="DejaVuSans-31" d="M 794 531 
L 1825 531 
L 1825 4091 
L 703 3866 
L 703 4441 
L 1819 4666 
L 2450 4666 
L 2450 531 
L 3481 531 
L 3481 0 
L 794 0 
L 794 531 
z
" transform="scale(0.015625)"/>
      </defs>
      <use xlink:href="#DejaVuSans-36"/>
      <use xlink:href="#DejaVuSans-43" x="63.623047"/>
      <use xlink:href="#DejaVuSans-3a" x="133.447266"/>
      <use xlink:href="#DejaVuSans-46" x="167.138672"/>
      <use xlink:href="#DejaVuSans-33" x="224.658203"/>
      <use xlink:href="#DejaVuSans-3a" x="288.28125"/>
      <use xlink:href="#DejaVuSans-37" x="321.972656"/>
      <use xlink:href="#DejaVuSans-46" x="385.595703"/>
      <use xlink:href="#DejaVuSans-3a" x="435.365234"/>
      <use xlink:href="#DejaVuSans-45" x="469.056641"/>
      <use xlink:href="#DejaVuSans-37" x="532.240234"/>
      <use xlink:href="#DejaVuSans-3a" x="595.863281"/>
      <use xlink:href="#DejaVuSans-43" x="629.554688"/>
      <use xlink:href="#DejaVuSans-46" x="699.378906"/>
      <use xlink:href="#DejaVuSans-3a" x="749.148438"/>
      <use xlink:href="#DejaVuSans-31" x="782.839844"/>
      <use xlink:href="#DejaVuSans-30" x="846.462891"/>
     </g>
    </g>
    <g id="patch_26">
     <path d="M 336.78 101.571719 
L 346.78 101.571719 
L 346.78 98.071719 
L 336.78 98.071719 
z
" style="fill: #17becf"/>
    </g>
    <g id="text_11">
     <!-- 6C:F3:7F:E9:50:90 -->
     <g transform="translate(350.78 101.571719) scale(0.05 -0.05)">
      <use xlink:href="#DejaVuSans-36"/>
      <use xlink:href="#DejaVuSans-43" x="63.623047"/>
      <use xlink:href="#DejaVuSans-3a" x="133.447266"/>
      <use xlink:href="#DejaVuSans-46" x="167.138672"/>
      <use xlink:href="#DejaVuSans-33" x="224.658203"/>
      <use xlink:href="#DejaVuSans-3a" x="288.28125"/>
      <use xlink:href="#DejaVuSans-37" x="321.972656"/>
      <use xlink:href="#DejaVuSans-46" x="385.595703"/>
      <use xlink:href="#DejaVuSans-3a" x="435.365234"/>
      <use xlink:href="#DejaVuSans-45" x="469.056641"/>
      <use xlink:href="#DejaVuSans-39" x="532.240234"/>
      <use xlink:href="#DejaVuSans-3a" x="595.863281"/>
      <use xlink:href="#DejaVuSans-35" x="629.554688"/>
      <use xlink:href="#DejaVuSans-30" x="693.177734"/>
      <use xlink:href="#DejaVuSans-3a" x="756.800781"/>
      <use xlink:href="#DejaVuSans-39" x="790.492188"/>
      <use xlink:href="#DejaVuSans-30" x="854.115234"/>
     </g>
    </g>
    <g id="patch_27">
     <path d="M 336.78 108.910781 
L 346.78 108.910781 
L 346.78 105.410781 
L 336.78 105.410781 
z
" style="fill: #1f77b4"/>
    </g>
    <g id="text_12">
     <!-- 6C:F3:7F:E7:DA:70 -->
     <g transform="translate(350.78 108.910781) scale(0.05 -0.05)">
      <use xlink:href="#DejaVuSans-36"/>
      <use xlink:href="#DejaVuSans-43" x="63.623047"/>
      <use xlink:href="#DejaVuSans-3a" x="133.447266"/>
      <use xlink:href="#DejaVuSans-46" x="167.138672"/>
      <use xlink:href="#DejaVuSans-33" x="224.658203"/>
      <use xlink:href="#DejaVuSans-3a" x="288.28125"/>
      <use xlink:href="#DejaVuSans-37" x="321.972656"/>
      <use xlink:href="#DejaVuSans-46" x="385.595703"/>
      <use xlink:href="#DejaVuSans-3a" x="435.365234"/>
      <use xlink:href="#DejaVuSans-45" x="469.056641"/>
      <use xlink:href="#DejaVuSans-37" x="532.240234"/>
      <use xlink:href="#DejaVuSans-3a" x="595.863281"/>
      <use xlink:href="#DejaVuSans-44" x="629.554688"/>
      <use xlink:href="#DejaVuSans-41" x="704.806641"/>
      <use xlink:href="#DejaVuSans-3a" x="771.464844"/>
      <use xlink:href="#DejaVuSans-37" x="805.15625"/>
      <use xlink:href="#DejaVuSans-30" x="868.779297"/>
     </g>
    </g>
    <g id="patch_28">
     <path d="M 336.78 116.249844 
L 346.78 116.249844 
L 346.78 112.749844 
L 336.78 112.749844 
z
" style="fill: #ff7f0e"/>
    </g>
    <g id="text_13">
     <!-- 6C:F3:7F:E7:90:50 -->
     <g transform="translate(350.78 116.249844) scale(0.05 -0.05)">
      <use xlink:href="#DejaVuSans-36"/>
      <use xlink:href="#DejaVuSans-43" x="63.623047"/>
      <use xlink:href="#DejaVuSans-3a" x="133.447266"/>
      <use xlink:href="#DejaVuSans-46" x="167.138672"/>
      <use xlink:href="#DejaVuSans-33" x="224.658203"/>
      <use xlink:href="#DejaVuSans-3a" x="288.28125"/>
      <use xlink:href="#DejaVuSans-37" x="321.972656"/>
      <use xlink:href="#DejaVuSans-46" x="385.595703"/>
      <use xlink:href="#DejaVuSans-3a" x="435.365234"/>
      <use xlink:href="#DejaVuSans-45" x="469.056641"/>
      <use xlink:href="#DejaVuSans-37" x="532.240234"/>
      <use xlink:href="#DejaVuSans-3a" x="595.863281"/>
      <use xlink:href="#DejaVuSans-39" x="629.554688"/>
      <use xlink:href="#DejaVuSans-30" x="693.177734"/>
      <use xlink:href="#DejaVuSans-3a" x="756.800781"/>
      <use xlink:href="#DejaVuSans-35" x="790.492188"/>
      <use xlink:href="#DejaVuSans-30" x="854.115234"/>
     </g>
    </g>
    <g id="patch_29">
     <path d="M 336.78 123.588906 
L 346.78 123.588906 
L 346.78 120.088906 
L 336.78 120.088906 
z
" style="fill: #2ca02c"/>
    </g>
    <g id="text_14">
     <!-- 6C:F3:7F:E7:BC:B0 -->
     <g transform="translate(350.78 123.588906) scale(0.05 -0.05)">
      <use xlink:href="#DejaVuSans-36"/>
      <use xlink:href="#DejaVuSans-43" x="63.623047"/>
      <use xlink:href="#DejaVuSans-3a" x="133.447266"/>
      <use xlink:href="#DejaVuSans-46" x="167.138672"/>
      <use xlink:href="#DejaVuSans-33" x="224.658203"/>
      <use xlink:href="#DejaVuSans-3a" x="288.28125"/>
      <use xlink:href="#DejaVuSans-37" x="321.972656"/>
      <use xlink:href="#DejaVuSans-46" x="385.595703"/>
      <use xlink:href="#DejaVuSans-3a" x="435.365234"/>
      <use xlink:href="#DejaVuSans-45" x="469.056641"/>
      <use xlink:href="#DejaVuSans-37" x="532.240234"/>
      <use xlink:href="#DejaVuSans-3a" x="595.863281"/>
      <use xlink:href="#DejaVuSans-42" x="629.554688"/>
      <use xlink:href="#DejaVuSans-43" x="696.408203"/>
      <use xlink:href="#DejaVuSans-3a" x="766.232422"/>
      <use xlink:href="#DejaVuSans-42" x="799.923828"/>
      <use xlink:href="#DejaVuSans-30" x="868.527344"/>
     </g>
    </g>
    <g id="patch_30">
     <path d="M 336.78 130.927969 
L 346.78 130.927969 
L 346.78 127.427969 
L 336.78 127.427969 
z
" style="fill: #d62728"/>
    </g>
    <g id="text_15">
     <!-- 6C:F3:7F:E7:98:90 -->
     <g transform="translate(350.78 130.927969) scale(0.05 -0.05)">
      <defs>
       <path id="DejaVuSans-38" d="M 2034 2216 
Q 1584 2216 1326 1975 
Q 1069 1734 1069 1313 
Q 1069 891 1326 650 
Q 1584 409 2034 409 
Q 2484 409 2743 651 
Q 3003 894 3003 1313 
Q 3003 1734 2745 1975 
Q 2488 2216 2034 2216 
z
M 1403 2484 
Q 997 2584 770 2862 
Q 544 3141 544 3541 
Q 544 4100 942 4425 
Q 1341 4750 2034 4750 
Q 2731 4750 3128 4425 
Q 3525 4100 3525 3541 
Q 3525 3141 3298 2862 
Q 3072 2584 2669 2484 
Q 3125 2378 3379 2068 
Q 3634 1759 3634 1313 
Q 3634 634 3220 271 
Q 2806 -91 2034 -91 
Q 1263 -91 848 271 
Q 434 634 434 1313 
Q 434 1759 690 2068 
Q 947 2378 1403 2484 
z
M 1172 3481 
Q 1172 3119 1398 2916 
Q 1625 2713 2034 2713 
Q 2441 2713 2670 2916 
Q 2900 3119 2900 3481 
Q 2900 3844 2670 4047 
Q 2441 4250 2034 4250 
Q 1625 4250 1398 4047 
Q 1172 3844 1172 3481 
z
" transform="scale(0.015625)"/>
      </defs>
      <use xlink:href="#DejaVuSans-36"/>
      <use xlink:href="#DejaVuSans-43" x="63.623047"/>
      <use xlink:href="#DejaVuSans-3a" x="133.447266"/>
      <use xlink:href="#DejaVuSans-46" x="167.138672"/>
      <use xlink:href="#DejaVuSans-33" x="224.658203"/>
      <use xlink:href="#DejaVuSans-3a" x="288.28125"/>
      <use xlink:href="#DejaVuSans-37" x="321.972656"/>
      <use xlink:href="#DejaVuSans-46" x="385.595703"/>
      <use xlink:href="#DejaVuSans-3a" x="435.365234"/>
      <use xlink:href="#DejaVuSans-45" x="469.056641"/>
      <use xlink:href="#DejaVuSans-37" x="532.240234"/>
      <use xlink:href="#DejaVuSans-3a" x="595.863281"/>
      <use xlink:href="#DejaVuSans-39" x="629.554688"/>
      <use xlink:href="#DejaVuSans-38" x="693.177734"/>
      <use xlink:href="#DejaVuSans-3a" x="756.800781"/>
      <use xlink:href="#DejaVuSans-39" x="790.492188"/>
      <use xlink:href="#DejaVuSans-30" x="854.115234"/>
     </g>
    </g>
    <g id="patch_31">
     <path d="M 336.78 138.267031 
L 346.78 138.267031 
L 346.78 134.767031 
L 336.78 134.767031 
z
" style="fill: #9467bd"/>
    </g>
    <g id="text_16">
     <!-- DIRECT-39-Pantum P3300 Series -->
     <g transform="translate(350.78 138.267031) scale(0.05 -0.05)">
      <defs>
       <path id="DejaVuSans-49" d="M 628 4666 
L 1259 4666 
L 1259 0 
L 628 0 
L 628 4666 
z
" transform="scale(0.015625)"/>
       <path id="DejaVuSans-52" d="M 2841 2188 
Q 3044 2119 3236 1894 
Q 3428 1669 3622 1275 
L 4263 0 
L 3584 0 
L 2988 1197 
Q 2756 1666 2539 1819 
Q 2322 1972 1947 1972 
L 1259 1972 
L 1259 0 
L 628 0 
L 628 4666 
L 2053 4666 
Q 2853 4666 3247 4331 
Q 3641 3997 3641 3322 
Q 3641 2881 3436 2590 
Q 3231 2300 2841 2188 
z
M 1259 4147 
L 1259 2491 
L 2053 2491 
Q 2509 2491 2742 2702 
Q 2975 2913 2975 3322 
Q 2975 3731 2742 3939 
Q 2509 4147 2053 4147 
L 1259 4147 
z
" transform="scale(0.015625)"/>
       <path id="DejaVuSans-54" d="M -19 4666 
L 3928 4666 
L 3928 4134 
L 2272 4134 
L 2272 0 
L 1638 0 
L 1638 4134 
L -19 4134 
L -19 4666 
z
" transform="scale(0.015625)"/>
       <path id="DejaVuSans-2d" d="M 313 2009 
L 1997 2009 
L 1997 1497 
L 313 1497 
L 313 2009 
z
" transform="scale(0.015625)"/>
       <path id="DejaVuSans-50" d="M 1259 4147 
L 1259 2394 
L 2053 2394 
Q 2494 2394 2734 2622 
Q 2975 2850 2975 3272 
Q 2975 3691 2734 3919 
Q 2494 4147 2053 4147 
L 1259 4147 
z
M 628 4666 
L 2053 4666 
Q 2838 4666 3239 4311 
Q 3641 3956 3641 3272 
Q 3641 2581 3239 2228 
Q 2838 1875 2053 1875 
L 1259 1875 
L 1259 0 
L 628 0 
L 628 4666 
z
" transform="scale(0.015625)"/>
      </defs>
      <use xlink:href="#DejaVuSans-44"/>
      <use xlink:href="#DejaVuSans-49" x="77.001953"/>
      <use xlink:href="#DejaVuSans-52" x="106.494141"/>
      <use xlink:href="#DejaVuSans-45" x="175.976562"/>
      <use xlink:href="#DejaVuSans-43" x="239.160156"/>
      <use xlink:href="#DejaVuSans-54" x="308.984375"/>
      <use xlink:href="#DejaVuSans-2d" x="360.943359"/>
      <use xlink:href="#DejaVuSans-33" x="397.027344"/>
      <use xlink:href="#DejaVuSans-39" x="460.650391"/>
      <use xlink:href="#DejaVuSans-2d" x="524.273438"/>
      <use xlink:href="#DejaVuSans-50" x="560.357422"/>
      <use xlink:href="#DejaVuSans-61" x="616.160156"/>
      <use xlink:href="#DejaVuSans-6e" x="677.439453"/>
      <use xlink:href="#DejaVuSans-74" x="740.818359"/>
      <use xlink:href="#DejaVuSans-75" x="780.027344"/>
      <use xlink:href="#DejaVuSans-6d" x="843.40625"/>
      <use xlink:href="#DejaVuSans-20" x="940.818359"/>
      <use xlink:href="#DejaVuSans-50" x="972.605469"/>
      <use xlink:href="#DejaVuSans-33" x="1032.908203"/>
      <use xlink:href="#DejaVuSans-33" x="1096.53125"/>
      <use xlink:href="#DejaVuSans-30" x="1160.154297"/>
      <use xlink:href="#DejaVuSans-30" x="1223.777344"/>
      <use xlink:href="#DejaVuSans-20" x="1287.400391"/>
      <use xlink:href="#DejaVuSans-53" x="1319.1875"/>
      <use xlink:href="#DejaVuSans-65" x="1382.664062"/>
      <use xlink:href="#DejaVuSans-72" x="1444.1875"/>
      <use xlink:href="#DejaVuSans-69" x="1485.300781"/>
      <use xlink:href="#DejaVuSans-65" x="1513.083984"/>
      <use xlink:href="#DejaVuSans-73" x="1574.607422"/>
     </g>
    </g>
   </g>
  </g>
 </g>
</svg>
