<?xml version="1.0" encoding="utf-8" standalone="no"?>
<!DOCTYPE svg PUBLIC "-//W3C//DTD SVG 1.1//EN"
  "http://www.w3.org/Graphics/SVG/1.1/DTD/svg11.dtd">
<svg xmlns:xlink="http://www.w3.org/1999/xlink" width="432pt" height="288pt" viewBox="0 0 432 288" xmlns="http://www.w3.org/2000/svg" version="1.1">
 <metadata>
  <rdf:RDF xmlns:dc="http://purl.org/dc/elements/1.1/" xmlns:cc="http://creativecommons.org/ns#" xmlns:rdf="http://www.w3.org/1999/02/22-rdf-syntax-ns#">
   <cc:Work>
    <dc:type rdf:resource="http://purl.org/dc/dcmitype/StillImage"/>
    <dc:date>2023-04-30T17:07:08.444426</dc:date>
    <dc:format>image/svg+xml</dc:format>
    <dc:creator>
     <cc:Agent>
      <dc:title>Matplotlib v3.7.1, https://matplotlib.org/</dc:title>
     </cc:Agent>
    </dc:creator>
   </cc:Work>
  </rdf:RDF>
 </metadata>
 <defs>
  <style type="text/css">*{stroke-linejoin: round; stroke-linecap: butt}</style>
 </defs>
 <g id="figure_1">
  <g id="patch_1">
   <path d="M 0 288 
L 432 288 
L 432 0 
L 0 0 
z
" style="fill: #e8e5da"/>
  </g>
  <g id="axes_1">
   <g id="patch_2">
    <path d="M 310.104 145.44 
C 310.104 129.870355 306.00474 114.571707 298.219917 101.087999 
C 290.435094 87.60429 279.235706 76.404904 265.751998 68.620081 
L 221.4 145.44 
z
" style="fill: #1f77b4"/>
   </g>
   <g id="patch_3">
    <path d="M 265.751998 68.620081 
C 259.038637 64.744121 251.846062 61.764859 244.358281 59.758515 
C 236.8705 57.75217 229.151917 56.736 221.399996 56.736 
L 221.4 145.44 
z
" style="fill: #ff7f0e"/>
   </g>
   <g id="patch_4">
    <path d="M 221.399996 56.736 
C 218.819292 56.736 216.239817 56.848623 213.668933 57.073546 
C 211.098049 57.298469 208.538205 57.635479 205.996708 58.083614 
L 221.4 145.44 
z
" style="fill: #2ca02c"/>
   </g>
   <g id="patch_5">
    <path d="M 205.996708 58.083614 
C 203.45521 58.531749 200.93448 59.090581 198.441711 59.758517 
C 195.948943 60.426452 193.48651 61.202854 191.061441 62.085507 
L 221.4 145.44 
z
" style="fill: #d62728"/>
   </g>
   <g id="patch_6">
    <path d="M 191.061441 62.085507 
C 188.636373 62.96816 186.250978 63.956223 183.912066 65.046876 
C 181.573154 66.137529 179.282951 67.329733 177.047996 68.620085 
L 221.4 145.44 
z
" style="fill: #9467bd"/>
   </g>
   <g id="patch_7">
    <path d="M 177.047996 68.620085 
C 174.813041 69.910437 172.635461 71.297709 170.521472 72.77794 
C 168.407483 74.258171 166.359098 75.829952 164.382164 77.488797 
L 221.4 145.44 
z
" style="fill: #8c564b"/>
   </g>
   <g id="patch_8">
    <path d="M 164.382164 77.488797 
C 162.40523 79.147641 160.50163 80.89197 158.676797 82.716803 
C 156.851964 84.541637 155.107635 86.445237 153.448791 88.422171 
L 221.4 145.44 
z
" style="fill: #e377c2"/>
   </g>
   <g id="patch_9">
    <path d="M 153.448791 88.422171 
C 151.789946 90.399106 150.218165 92.447491 148.737934 94.56148 
C 147.257703 96.675469 145.870432 98.853049 144.58008 101.088004 
L 221.4 145.44 
z
" style="fill: #7f7f7f"/>
   </g>
   <g id="patch_10">
    <path d="M 144.58008 101.088004 
C 143.289728 103.32296 142.097525 105.613162 141.006872 107.952074 
C 139.916219 110.290986 138.928157 112.676381 138.045504 115.10145 
L 221.4 145.44 
z
" style="fill: #bcbd22"/>
   </g>
   <g id="patch_11">
    <path d="M 138.045504 115.10145 
C 137.162851 117.526519 136.386449 119.988951 135.718514 122.48172 
C 135.050579 124.974489 134.491747 127.49522 134.043612 130.036717 
L 221.4 145.44 
z
" style="fill: #17becf"/>
   </g>
   <g id="patch_12">
    <path d="M 134.043612 130.036717 
C 133.595478 132.578214 133.258468 135.138058 133.033545 137.708942 
C 132.808622 140.279826 132.696 142.859301 132.696 145.440005 
L 221.4 145.44 
z
" style="fill: #1f77b4"/>
   </g>
   <g id="patch_13">
    <path d="M 132.696 145.440005 
C 132.696 148.020709 132.808623 150.600185 133.033546 153.171068 
C 133.258469 155.741952 133.595479 158.301796 134.043614 160.843293 
L 221.4 145.44 
z
" style="fill: #ff7f0e"/>
   </g>
   <g id="patch_14">
    <path d="M 134.043614 160.843293 
C 134.491749 163.384791 135.050581 165.905521 135.718517 168.39829 
C 136.386452 170.891058 137.162855 173.353491 138.045508 175.77856 
L 221.4 145.44 
z
" style="fill: #2ca02c"/>
   </g>
   <g id="patch_15">
    <path d="M 138.045508 175.77856 
C 138.928161 178.203628 139.916224 180.589023 141.006876 182.927935 
C 142.097529 185.266847 143.289733 187.55705 144.580085 189.792005 
L 221.4 145.44 
z
" style="fill: #d62728"/>
   </g>
   <g id="patch_16">
    <path d="M 144.580085 189.792005 
C 145.870438 192.02696 147.257709 194.20454 148.73794 196.318529 
C 150.218171 198.432518 151.789953 200.480903 153.448797 202.457836 
L 221.4 145.44 
z
" style="fill: #9467bd"/>
   </g>
   <g id="patch_17">
    <path d="M 153.448797 202.457836 
C 155.107642 204.43477 156.851971 206.338371 158.676804 208.163204 
C 160.501638 209.988037 162.405238 211.732366 164.382172 213.39121 
L 221.4 145.44 
z
" style="fill: #8c564b"/>
   </g>
   <g id="patch_18">
    <path d="M 164.382172 213.39121 
C 166.359106 215.050054 168.407491 216.621835 170.521481 218.102066 
C 172.63547 219.582297 174.81305 220.969568 177.048005 222.25992 
L 221.4 145.44 
z
" style="fill: #e377c2"/>
   </g>
   <g id="patch_19">
    <path d="M 177.048005 222.25992 
C 179.28296 223.550272 181.573163 224.742476 183.912075 225.833128 
C 186.250987 226.923781 188.636382 227.911844 191.061451 228.794496 
L 221.4 145.44 
z
" style="fill: #7f7f7f"/>
   </g>
   <g id="patch_20">
    <path d="M 191.061451 228.794496 
C 193.486519 229.677149 195.948952 230.453551 198.441721 231.121486 
C 200.93449 231.789421 203.455221 232.348254 205.996718 232.796388 
L 221.4 145.44 
z
" style="fill: #bcbd22"/>
   </g>
   <g id="patch_21">
    <path d="M 205.996718 232.796388 
C 208.538215 233.244522 211.098059 233.581532 213.668943 233.806455 
C 216.239827 234.031378 218.819302 234.144 221.400006 234.144 
L 221.4 145.44 
z
" style="fill: #17becf"/>
   </g>
   <g id="patch_22">
    <path d="M 221.400006 234.144 
C 223.98071 234.144 226.560186 234.031377 229.131069 233.806454 
C 231.701953 233.581531 234.261797 233.244521 236.803294 232.796386 
L 221.4 145.44 
z
" style="fill: #1f77b4"/>
   </g>
   <g id="patch_23">
    <path d="M 236.803294 232.796386 
C 239.344792 232.348251 241.865522 231.789418 244.358291 231.121483 
C 246.851059 230.453547 249.313492 229.677145 251.738561 228.794492 
L 221.4 145.44 
z
" style="fill: #ff7f0e"/>
   </g>
   <g id="patch_24">
    <path d="M 251.738561 228.794492 
C 254.163629 227.911839 256.549024 226.923776 258.887936 225.833123 
C 261.226848 224.74247 263.51705 223.550266 265.752006 222.259914 
L 221.4 145.44 
z
" style="fill: #2ca02c"/>
   </g>
   <g id="patch_25">
    <path d="M 265.752006 222.259914 
C 267.986961 220.969562 270.164541 219.58229 272.27853 218.102059 
C 274.392519 216.621828 276.440903 215.050047 278.417837 213.391202 
L 221.4 145.44 
z
" style="fill: #d62728"/>
   </g>
   <g id="patch_26">
    <path d="M 278.417837 213.391202 
C 280.394771 211.732357 282.298371 209.988029 284.123205 208.163195 
C 285.948038 206.338362 287.692366 204.434761 289.351211 202.457827 
L 221.4 145.44 
z
" style="fill: #9467bd"/>
   </g>
   <g id="patch_27">
    <path d="M 289.351211 202.457827 
C 291.010055 200.480893 292.581836 198.432508 294.062067 196.318519 
C 295.542298 194.204529 296.929569 192.026949 298.219921 189.791994 
L 221.4 145.44 
z
" style="fill: #8c564b"/>
   </g>
   <g id="patch_28">
    <path d="M 298.219921 189.791994 
C 299.510273 187.557039 300.702476 185.266836 301.793129 182.927924 
C 302.883781 180.589012 303.871844 178.203617 304.754497 175.778548 
L 221.4 145.44 
z
" style="fill: #e377c2"/>
   </g>
   <g id="patch_29">
    <path d="M 304.754497 175.778548 
C 305.637149 173.35348 306.413551 170.891047 307.081486 168.398278 
C 307.749422 165.905509 308.308254 163.384778 308.756388 160.843281 
L 221.4 145.44 
z
" style="fill: #7f7f7f"/>
   </g>
   <g id="patch_30">
    <path d="M 308.756388 160.843281 
C 309.204523 158.301783 309.541532 155.74194 309.766455 153.171056 
C 309.991378 150.600172 310.104 148.020697 310.104 145.439993 
L 221.4 145.44 
z
" style="fill: #bcbd22"/>
   </g>
   <g id="matplotlib.axis_1"/>
   <g id="matplotlib.axis_2"/>
   <g id="text_1">
    <!-- Manufacturer Distribution -->
    <g transform="translate(144.299062 28.56) scale(0.12 -0.12)">
     <defs>
      <path id="DejaVuSans-4d" d="M 628 4666 
L 1569 4666 
L 2759 1491 
L 3956 4666 
L 4897 4666 
L 4897 0 
L 4281 0 
L 4281 4097 
L 3078 897 
L 2444 897 
L 1241 4097 
L 1241 0 
L 628 0 
L 628 4666 
z
" transform="scale(0.015625)"/>
      <path id="DejaVuSans-61" d="M 2194 1759 
Q 1497 1759 1228 1600 
Q 959 1441 959 1056 
Q 959 750 1161 570 
Q 1363 391 1709 391 
Q 2188 391 2477 730 
Q 2766 1069 2766 1631 
L 2766 1759 
L 2194 1759 
z
M 3341 1997 
L 3341 0 
L 2766 0 
L 2766 531 
Q 2569 213 2275 61 
Q 1981 -91 1556 -91 
Q 1019 -91 701 211 
Q 384 513 384 1019 
Q 384 1609 779 1909 
Q 1175 2209 1959 2209 
L 2766 2209 
L 2766 2266 
Q 2766 2663 2505 2880 
Q 2244 3097 1772 3097 
Q 1472 3097 1187 3025 
Q 903 2953 641 2809 
L 641 3341 
Q 956 3463 1253 3523 
Q 1550 3584 1831 3584 
Q 2591 3584 2966 3190 
Q 3341 2797 3341 1997 
z
" transform="scale(0.015625)"/>
      <path id="DejaVuSans-6e" d="M 3513 2113 
L 3513 0 
L 2938 0 
L 2938 2094 
Q 2938 2591 2744 2837 
Q 2550 3084 2163 3084 
Q 1697 3084 1428 2787 
Q 1159 2491 1159 1978 
L 1159 0 
L 581 0 
L 581 3500 
L 1159 3500 
L 1159 2956 
Q 1366 3272 1645 3428 
Q 1925 3584 2291 3584 
Q 2894 3584 3203 3211 
Q 3513 2838 3513 2113 
z
" transform="scale(0.015625)"/>
      <path id="DejaVuSans-75" d="M 544 1381 
L 544 3500 
L 1119 3500 
L 1119 1403 
Q 1119 906 1312 657 
Q 1506 409 1894 409 
Q 2359 409 2629 706 
Q 2900 1003 2900 1516 
L 2900 3500 
L 3475 3500 
L 3475 0 
L 2900 0 
L 2900 538 
Q 2691 219 2414 64 
Q 2138 -91 1772 -91 
Q 1169 -91 856 284 
Q 544 659 544 1381 
z
M 1991 3584 
L 1991 3584 
z
" transform="scale(0.015625)"/>
      <path id="DejaVuSans-66" d="M 2375 4863 
L 2375 4384 
L 1825 4384 
Q 1516 4384 1395 4259 
Q 1275 4134 1275 3809 
L 1275 3500 
L 2222 3500 
L 2222 3053 
L 1275 3053 
L 1275 0 
L 697 0 
L 697 3053 
L 147 3053 
L 147 3500 
L 697 3500 
L 697 3744 
Q 697 4328 969 4595 
Q 1241 4863 1831 4863 
L 2375 4863 
z
" transform="scale(0.015625)"/>
      <path id="DejaVuSans-63" d="M 3122 3366 
L 3122 2828 
Q 2878 2963 2633 3030 
Q 2388 3097 2138 3097 
Q 1578 3097 1268 2742 
Q 959 2388 959 1747 
Q 959 1106 1268 751 
Q 1578 397 2138 397 
Q 2388 397 2633 464 
Q 2878 531 3122 666 
L 3122 134 
Q 2881 22 2623 -34 
Q 2366 -91 2075 -91 
Q 1284 -91 818 406 
Q 353 903 353 1747 
Q 353 2603 823 3093 
Q 1294 3584 2113 3584 
Q 2378 3584 2631 3529 
Q 2884 3475 3122 3366 
z
" transform="scale(0.015625)"/>
      <path id="DejaVuSans-74" d="M 1172 4494 
L 1172 3500 
L 2356 3500 
L 2356 3053 
L 1172 3053 
L 1172 1153 
Q 1172 725 1289 603 
Q 1406 481 1766 481 
L 2356 481 
L 2356 0 
L 1766 0 
Q 1100 0 847 248 
Q 594 497 594 1153 
L 594 3053 
L 172 3053 
L 172 3500 
L 594 3500 
L 594 4494 
L 1172 4494 
z
" transform="scale(0.015625)"/>
      <path id="DejaVuSans-72" d="M 2631 2963 
Q 2534 3019 2420 3045 
Q 2306 3072 2169 3072 
Q 1681 3072 1420 2755 
Q 1159 2438 1159 1844 
L 1159 0 
L 581 0 
L 581 3500 
L 1159 3500 
L 1159 2956 
Q 1341 3275 1631 3429 
Q 1922 3584 2338 3584 
Q 2397 3584 2469 3576 
Q 2541 3569 2628 3553 
L 2631 2963 
z
" transform="scale(0.015625)"/>
      <path id="DejaVuSans-65" d="M 3597 1894 
L 3597 1613 
L 953 1613 
Q 991 1019 1311 708 
Q 1631 397 2203 397 
Q 2534 397 2845 478 
Q 3156 559 3463 722 
L 3463 178 
Q 3153 47 2828 -22 
Q 2503 -91 2169 -91 
Q 1331 -91 842 396 
Q 353 884 353 1716 
Q 353 2575 817 3079 
Q 1281 3584 2069 3584 
Q 2775 3584 3186 3129 
Q 3597 2675 3597 1894 
z
M 3022 2063 
Q 3016 2534 2758 2815 
Q 2500 3097 2075 3097 
Q 1594 3097 1305 2825 
Q 1016 2553 972 2059 
L 3022 2063 
z
" transform="scale(0.015625)"/>
      <path id="DejaVuSans-20" transform="scale(0.015625)"/>
      <path id="DejaVuSans-44" d="M 1259 4147 
L 1259 519 
L 2022 519 
Q 2988 519 3436 956 
Q 3884 1394 3884 2338 
Q 3884 3275 3436 3711 
Q 2988 4147 2022 4147 
L 1259 4147 
z
M 628 4666 
L 1925 4666 
Q 3281 4666 3915 4102 
Q 4550 3538 4550 2338 
Q 4550 1131 3912 565 
Q 3275 0 1925 0 
L 628 0 
L 628 4666 
z
" transform="scale(0.015625)"/>
      <path id="DejaVuSans-69" d="M 603 3500 
L 1178 3500 
L 1178 0 
L 603 0 
L 603 3500 
z
M 603 4863 
L 1178 4863 
L 1178 4134 
L 603 4134 
L 603 4863 
z
" transform="scale(0.015625)"/>
      <path id="DejaVuSans-73" d="M 2834 3397 
L 2834 2853 
Q 2591 2978 2328 3040 
Q 2066 3103 1784 3103 
Q 1356 3103 1142 2972 
Q 928 2841 928 2578 
Q 928 2378 1081 2264 
Q 1234 2150 1697 2047 
L 1894 2003 
Q 2506 1872 2764 1633 
Q 3022 1394 3022 966 
Q 3022 478 2636 193 
Q 2250 -91 1575 -91 
Q 1294 -91 989 -36 
Q 684 19 347 128 
L 347 722 
Q 666 556 975 473 
Q 1284 391 1588 391 
Q 1994 391 2212 530 
Q 2431 669 2431 922 
Q 2431 1156 2273 1281 
Q 2116 1406 1581 1522 
L 1381 1569 
Q 847 1681 609 1914 
Q 372 2147 372 2553 
Q 372 3047 722 3315 
Q 1072 3584 1716 3584 
Q 2034 3584 2315 3537 
Q 2597 3491 2834 3397 
z
" transform="scale(0.015625)"/>
      <path id="DejaVuSans-62" d="M 3116 1747 
Q 3116 2381 2855 2742 
Q 2594 3103 2138 3103 
Q 1681 3103 1420 2742 
Q 1159 2381 1159 1747 
Q 1159 1113 1420 752 
Q 1681 391 2138 391 
Q 2594 391 2855 752 
Q 3116 1113 3116 1747 
z
M 1159 2969 
Q 1341 3281 1617 3432 
Q 1894 3584 2278 3584 
Q 2916 3584 3314 3078 
Q 3713 2572 3713 1747 
Q 3713 922 3314 415 
Q 2916 -91 2278 -91 
Q 1894 -91 1617 61 
Q 1341 213 1159 525 
L 1159 0 
L 581 0 
L 581 4863 
L 1159 4863 
L 1159 2969 
z
" transform="scale(0.015625)"/>
      <path id="DejaVuSans-6f" d="M 1959 3097 
Q 1497 3097 1228 2736 
Q 959 2375 959 1747 
Q 959 1119 1226 758 
Q 1494 397 1959 397 
Q 2419 397 2687 759 
Q 2956 1122 2956 1747 
Q 2956 2369 2687 2733 
Q 2419 3097 1959 3097 
z
M 1959 3584 
Q 2709 3584 3137 3096 
Q 3566 2609 3566 1747 
Q 3566 888 3137 398 
Q 2709 -91 1959 -91 
Q 1206 -91 779 398 
Q 353 888 353 1747 
Q 353 2609 779 3096 
Q 1206 3584 1959 3584 
z
" transform="scale(0.015625)"/>
     </defs>
     <use xlink:href="#DejaVuSans-4d"/>
     <use xlink:href="#DejaVuSans-61" x="86.279297"/>
     <use xlink:href="#DejaVuSans-6e" x="147.558594"/>
     <use xlink:href="#DejaVuSans-75" x="210.9375"/>
     <use xlink:href="#DejaVuSans-66" x="274.316406"/>
     <use xlink:href="#DejaVuSans-61" x="309.521484"/>
     <use xlink:href="#DejaVuSans-63" x="370.800781"/>
     <use xlink:href="#DejaVuSans-74" x="425.78125"/>
     <use xlink:href="#DejaVuSans-75" x="464.990234"/>
     <use xlink:href="#DejaVuSans-72" x="528.369141"/>
     <use xlink:href="#DejaVuSans-65" x="567.232422"/>
     <use xlink:href="#DejaVuSans-72" x="628.755859"/>
     <use xlink:href="#DejaVuSans-20" x="669.869141"/>
     <use xlink:href="#DejaVuSans-44" x="701.65625"/>
     <use xlink:href="#DejaVuSans-69" x="778.658203"/>
     <use xlink:href="#DejaVuSans-73" x="806.441406"/>
     <use xlink:href="#DejaVuSans-74" x="858.541016"/>
     <use xlink:href="#DejaVuSans-72" x="897.75"/>
     <use xlink:href="#DejaVuSans-69" x="938.863281"/>
     <use xlink:href="#DejaVuSans-62" x="966.646484"/>
     <use xlink:href="#DejaVuSans-75" x="1030.123047"/>
     <use xlink:href="#DejaVuSans-74" x="1093.501953"/>
     <use xlink:href="#DejaVuSans-69" x="1132.710938"/>
     <use xlink:href="#DejaVuSans-6f" x="1160.494141"/>
     <use xlink:href="#DejaVuSans-6e" x="1221.675781"/>
    </g>
   </g>
   <g id="legend_1">
    <g id="patch_31">
     <path d="M 313.604 246.957613 
L 424.853219 246.957613 
Q 425.853219 246.957613 425.853219 245.957613 
L 425.853219 33.6248 
Q 425.853219 32.6248 424.853219 32.6248 
L 313.604 32.6248 
Q 312.604 32.6248 312.604 33.6248 
L 312.604 245.957613 
Q 312.604 246.957613 313.604 246.957613 
z
" style="fill: #ffffff; opacity: 0.8; stroke: #cccccc; stroke-linejoin: miter"/>
    </g>
    <g id="patch_32">
     <path d="M 314.604 38.424019 
L 324.604 38.424019 
L 324.604 34.924019 
L 314.604 34.924019 
z
" style="fill: #1f77b4"/>
    </g>
    <g id="text_2">
     <!-- Apple -->
     <g transform="translate(328.604 38.424019) scale(0.05 -0.05)">
      <defs>
       <path id="DejaVuSans-41" d="M 2188 4044 
L 1331 1722 
L 3047 1722 
L 2188 4044 
z
M 1831 4666 
L 2547 4666 
L 4325 0 
L 3669 0 
L 3244 1197 
L 1141 1197 
L 716 0 
L 50 0 
L 1831 4666 
z
" transform="scale(0.015625)"/>
       <path id="DejaVuSans-70" d="M 1159 525 
L 1159 -1331 
L 581 -1331 
L 581 3500 
L 1159 3500 
L 1159 2969 
Q 1341 3281 1617 3432 
Q 1894 3584 2278 3584 
Q 2916 3584 3314 3078 
Q 3713 2572 3713 1747 
Q 3713 922 3314 415 
Q 2916 -91 2278 -91 
Q 1894 -91 1617 61 
Q 1341 213 1159 525 
z
M 3116 1747 
Q 3116 2381 2855 2742 
Q 2594 3103 2138 3103 
Q 1681 3103 1420 2742 
Q 1159 2381 1159 1747 
Q 1159 1113 1420 752 
Q 1681 391 2138 391 
Q 2594 391 2855 752 
Q 3116 1113 3116 1747 
z
" transform="scale(0.015625)"/>
       <path id="DejaVuSans-6c" d="M 603 4863 
L 1178 4863 
L 1178 0 
L 603 0 
L 603 4863 
z
" transform="scale(0.015625)"/>
      </defs>
      <use xlink:href="#DejaVuSans-41"/>
      <use xlink:href="#DejaVuSans-70" x="68.408203"/>
      <use xlink:href="#DejaVuSans-70" x="131.884766"/>
      <use xlink:href="#DejaVuSans-6c" x="195.361328"/>
      <use xlink:href="#DejaVuSans-65" x="223.144531"/>
     </g>
    </g>
    <g id="patch_33">
     <path d="M 314.604 45.763081 
L 324.604 45.763081 
L 324.604 42.263081 
L 314.604 42.263081 
z
" style="fill: #ff7f0e"/>
    </g>
    <g id="text_3">
     <!-- Intel Corporation -->
     <g transform="translate(328.604 45.763081) scale(0.05 -0.05)">
      <defs>
       <path id="DejaVuSans-49" d="M 628 4666 
L 1259 4666 
L 1259 0 
L 628 0 
L 628 4666 
z
" transform="scale(0.015625)"/>
       <path id="DejaVuSans-43" d="M 4122 4306 
L 4122 3641 
Q 3803 3938 3442 4084 
Q 3081 4231 2675 4231 
Q 1875 4231 1450 3742 
Q 1025 3253 1025 2328 
Q 1025 1406 1450 917 
Q 1875 428 2675 428 
Q 3081 428 3442 575 
Q 3803 722 4122 1019 
L 4122 359 
Q 3791 134 3420 21 
Q 3050 -91 2638 -91 
Q 1578 -91 968 557 
Q 359 1206 359 2328 
Q 359 3453 968 4101 
Q 1578 4750 2638 4750 
Q 3056 4750 3426 4639 
Q 3797 4528 4122 4306 
z
" transform="scale(0.015625)"/>
      </defs>
      <use xlink:href="#DejaVuSans-49"/>
      <use xlink:href="#DejaVuSans-6e" x="29.492188"/>
      <use xlink:href="#DejaVuSans-74" x="92.871094"/>
      <use xlink:href="#DejaVuSans-65" x="132.080078"/>
      <use xlink:href="#DejaVuSans-6c" x="193.603516"/>
      <use xlink:href="#DejaVuSans-20" x="221.386719"/>
      <use xlink:href="#DejaVuSans-43" x="253.173828"/>
      <use xlink:href="#DejaVuSans-6f" x="322.998047"/>
      <use xlink:href="#DejaVuSans-72" x="384.179688"/>
      <use xlink:href="#DejaVuSans-70" x="425.292969"/>
      <use xlink:href="#DejaVuSans-6f" x="488.769531"/>
      <use xlink:href="#DejaVuSans-72" x="549.951172"/>
      <use xlink:href="#DejaVuSans-61" x="591.064453"/>
      <use xlink:href="#DejaVuSans-74" x="652.34375"/>
      <use xlink:href="#DejaVuSans-69" x="691.552734"/>
      <use xlink:href="#DejaVuSans-6f" x="719.335938"/>
      <use xlink:href="#DejaVuSans-6e" x="780.517578"/>
     </g>
    </g>
    <g id="patch_34">
     <path d="M 314.604 53.102144 
L 324.604 53.102144 
L 324.604 49.602144 
L 314.604 49.602144 
z
" style="fill: #2ca02c"/>
    </g>
    <g id="text_4">
     <!-- Bose Corporation -->
     <g transform="translate(328.604 53.102144) scale(0.05 -0.05)">
      <defs>
       <path id="DejaVuSans-42" d="M 1259 2228 
L 1259 519 
L 2272 519 
Q 2781 519 3026 730 
Q 3272 941 3272 1375 
Q 3272 1813 3026 2020 
Q 2781 2228 2272 2228 
L 1259 2228 
z
M 1259 4147 
L 1259 2741 
L 2194 2741 
Q 2656 2741 2882 2914 
Q 3109 3088 3109 3444 
Q 3109 3797 2882 3972 
Q 2656 4147 2194 4147 
L 1259 4147 
z
M 628 4666 
L 2241 4666 
Q 2963 4666 3353 4366 
Q 3744 4066 3744 3513 
Q 3744 3084 3544 2831 
Q 3344 2578 2956 2516 
Q 3422 2416 3680 2098 
Q 3938 1781 3938 1306 
Q 3938 681 3513 340 
Q 3088 0 2303 0 
L 628 0 
L 628 4666 
z
" transform="scale(0.015625)"/>
      </defs>
      <use xlink:href="#DejaVuSans-42"/>
      <use xlink:href="#DejaVuSans-6f" x="68.603516"/>
      <use xlink:href="#DejaVuSans-73" x="129.785156"/>
      <use xlink:href="#DejaVuSans-65" x="181.884766"/>
      <use xlink:href="#DejaVuSans-20" x="243.408203"/>
      <use xlink:href="#DejaVuSans-43" x="275.195312"/>
      <use xlink:href="#DejaVuSans-6f" x="345.019531"/>
      <use xlink:href="#DejaVuSans-72" x="406.201172"/>
      <use xlink:href="#DejaVuSans-70" x="447.314453"/>
      <use xlink:href="#DejaVuSans-6f" x="510.791016"/>
      <use xlink:href="#DejaVuSans-72" x="571.972656"/>
      <use xlink:href="#DejaVuSans-61" x="613.085938"/>
      <use xlink:href="#DejaVuSans-74" x="674.365234"/>
      <use xlink:href="#DejaVuSans-69" x="713.574219"/>
      <use xlink:href="#DejaVuSans-6f" x="741.357422"/>
      <use xlink:href="#DejaVuSans-6e" x="802.539062"/>
     </g>
    </g>
    <g id="patch_35">
     <path d="M 314.604 60.441206 
L 324.604 60.441206 
L 324.604 56.941206 
L 314.604 56.941206 
z
" style="fill: #d62728"/>
    </g>
    <g id="text_5">
     <!-- World Elite Technology Ltd -->
     <g transform="translate(328.604 60.441206) scale(0.05 -0.05)">
      <defs>
       <path id="DejaVuSans-57" d="M 213 4666 
L 850 4666 
L 1831 722 
L 2809 4666 
L 3519 4666 
L 4500 722 
L 5478 4666 
L 6119 4666 
L 4947 0 
L 4153 0 
L 3169 4050 
L 2175 0 
L 1381 0 
L 213 4666 
z
" transform="scale(0.015625)"/>
       <path id="DejaVuSans-64" d="M 2906 2969 
L 2906 4863 
L 3481 4863 
L 3481 0 
L 2906 0 
L 2906 525 
Q 2725 213 2448 61 
Q 2172 -91 1784 -91 
Q 1150 -91 751 415 
Q 353 922 353 1747 
Q 353 2572 751 3078 
Q 1150 3584 1784 3584 
Q 2172 3584 2448 3432 
Q 2725 3281 2906 2969 
z
M 947 1747 
Q 947 1113 1208 752 
Q 1469 391 1925 391 
Q 2381 391 2643 752 
Q 2906 1113 2906 1747 
Q 2906 2381 2643 2742 
Q 2381 3103 1925 3103 
Q 1469 3103 1208 2742 
Q 947 2381 947 1747 
z
" transform="scale(0.015625)"/>
       <path id="DejaVuSans-45" d="M 628 4666 
L 3578 4666 
L 3578 4134 
L 1259 4134 
L 1259 2753 
L 3481 2753 
L 3481 2222 
L 1259 2222 
L 1259 531 
L 3634 531 
L 3634 0 
L 628 0 
L 628 4666 
z
" transform="scale(0.015625)"/>
       <path id="DejaVuSans-54" d="M -19 4666 
L 3928 4666 
L 3928 4134 
L 2272 4134 
L 2272 0 
L 1638 0 
L 1638 4134 
L -19 4134 
L -19 4666 
z
" transform="scale(0.015625)"/>
       <path id="DejaVuSans-68" d="M 3513 2113 
L 3513 0 
L 2938 0 
L 2938 2094 
Q 2938 2591 2744 2837 
Q 2550 3084 2163 3084 
Q 1697 3084 1428 2787 
Q 1159 2491 1159 1978 
L 1159 0 
L 581 0 
L 581 4863 
L 1159 4863 
L 1159 2956 
Q 1366 3272 1645 3428 
Q 1925 3584 2291 3584 
Q 2894 3584 3203 3211 
Q 3513 2838 3513 2113 
z
" transform="scale(0.015625)"/>
       <path id="DejaVuSans-67" d="M 2906 1791 
Q 2906 2416 2648 2759 
Q 2391 3103 1925 3103 
Q 1463 3103 1205 2759 
Q 947 2416 947 1791 
Q 947 1169 1205 825 
Q 1463 481 1925 481 
Q 2391 481 2648 825 
Q 2906 1169 2906 1791 
z
M 3481 434 
Q 3481 -459 3084 -895 
Q 2688 -1331 1869 -1331 
Q 1566 -1331 1297 -1286 
Q 1028 -1241 775 -1147 
L 775 -588 
Q 1028 -725 1275 -790 
Q 1522 -856 1778 -856 
Q 2344 -856 2625 -561 
Q 2906 -266 2906 331 
L 2906 616 
Q 2728 306 2450 153 
Q 2172 0 1784 0 
Q 1141 0 747 490 
Q 353 981 353 1791 
Q 353 2603 747 3093 
Q 1141 3584 1784 3584 
Q 2172 3584 2450 3431 
Q 2728 3278 2906 2969 
L 2906 3500 
L 3481 3500 
L 3481 434 
z
" transform="scale(0.015625)"/>
       <path id="DejaVuSans-79" d="M 2059 -325 
Q 1816 -950 1584 -1140 
Q 1353 -1331 966 -1331 
L 506 -1331 
L 506 -850 
L 844 -850 
Q 1081 -850 1212 -737 
Q 1344 -625 1503 -206 
L 1606 56 
L 191 3500 
L 800 3500 
L 1894 763 
L 2988 3500 
L 3597 3500 
L 2059 -325 
z
" transform="scale(0.015625)"/>
       <path id="DejaVuSans-4c" d="M 628 4666 
L 1259 4666 
L 1259 531 
L 3531 531 
L 3531 0 
L 628 0 
L 628 4666 
z
" transform="scale(0.015625)"/>
      </defs>
      <use xlink:href="#DejaVuSans-57"/>
      <use xlink:href="#DejaVuSans-6f" x="93.001953"/>
      <use xlink:href="#DejaVuSans-72" x="154.183594"/>
      <use xlink:href="#DejaVuSans-6c" x="195.296875"/>
      <use xlink:href="#DejaVuSans-64" x="223.080078"/>
      <use xlink:href="#DejaVuSans-20" x="286.556641"/>
      <use xlink:href="#DejaVuSans-45" x="318.34375"/>
      <use xlink:href="#DejaVuSans-6c" x="381.527344"/>
      <use xlink:href="#DejaVuSans-69" x="409.310547"/>
      <use xlink:href="#DejaVuSans-74" x="437.09375"/>
      <use xlink:href="#DejaVuSans-65" x="476.302734"/>
      <use xlink:href="#DejaVuSans-20" x="537.826172"/>
      <use xlink:href="#DejaVuSans-54" x="569.613281"/>
      <use xlink:href="#DejaVuSans-65" x="613.697266"/>
      <use xlink:href="#DejaVuSans-63" x="675.220703"/>
      <use xlink:href="#DejaVuSans-68" x="730.201172"/>
      <use xlink:href="#DejaVuSans-6e" x="793.580078"/>
      <use xlink:href="#DejaVuSans-6f" x="856.958984"/>
      <use xlink:href="#DejaVuSans-6c" x="918.140625"/>
      <use xlink:href="#DejaVuSans-6f" x="945.923828"/>
      <use xlink:href="#DejaVuSans-67" x="1007.105469"/>
      <use xlink:href="#DejaVuSans-79" x="1070.582031"/>
      <use xlink:href="#DejaVuSans-20" x="1129.761719"/>
      <use xlink:href="#DejaVuSans-4c" x="1161.548828"/>
      <use xlink:href="#DejaVuSans-74" x="1217.261719"/>
      <use xlink:href="#DejaVuSans-64" x="1256.470703"/>
     </g>
    </g>
    <g id="patch_36">
     <path d="M 314.604 67.780269 
L 324.604 67.780269 
L 324.604 64.280269 
L 314.604 64.280269 
z
" style="fill: #9467bd"/>
    </g>
    <g id="text_6">
     <!-- Canon Inc. -->
     <g transform="translate(328.604 67.780269) scale(0.05 -0.05)">
      <defs>
       <path id="DejaVuSans-2e" d="M 684 794 
L 1344 794 
L 1344 0 
L 684 0 
L 684 794 
z
" transform="scale(0.015625)"/>
      </defs>
      <use xlink:href="#DejaVuSans-43"/>
      <use xlink:href="#DejaVuSans-61" x="69.824219"/>
      <use xlink:href="#DejaVuSans-6e" x="131.103516"/>
      <use xlink:href="#DejaVuSans-6f" x="194.482422"/>
      <use xlink:href="#DejaVuSans-6e" x="255.664062"/>
      <use xlink:href="#DejaVuSans-20" x="319.042969"/>
      <use xlink:href="#DejaVuSans-49" x="350.830078"/>
      <use xlink:href="#DejaVuSans-6e" x="380.322266"/>
      <use xlink:href="#DejaVuSans-63" x="443.701172"/>
      <use xlink:href="#DejaVuSans-2e" x="498.681641"/>
     </g>
    </g>
    <g id="patch_37">
     <path d="M 314.604 75.119331 
L 324.604 75.119331 
L 324.604 71.619331 
L 314.604 71.619331 
z
" style="fill: #8c564b"/>
    </g>
    <g id="text_7">
     <!-- Itel Mobile Limited -->
     <g transform="translate(328.604 75.119331) scale(0.05 -0.05)">
      <defs>
       <path id="DejaVuSans-6d" d="M 3328 2828 
Q 3544 3216 3844 3400 
Q 4144 3584 4550 3584 
Q 5097 3584 5394 3201 
Q 5691 2819 5691 2113 
L 5691 0 
L 5113 0 
L 5113 2094 
Q 5113 2597 4934 2840 
Q 4756 3084 4391 3084 
Q 3944 3084 3684 2787 
Q 3425 2491 3425 1978 
L 3425 0 
L 2847 0 
L 2847 2094 
Q 2847 2600 2669 2842 
Q 2491 3084 2119 3084 
Q 1678 3084 1418 2786 
Q 1159 2488 1159 1978 
L 1159 0 
L 581 0 
L 581 3500 
L 1159 3500 
L 1159 2956 
Q 1356 3278 1631 3431 
Q 1906 3584 2284 3584 
Q 2666 3584 2933 3390 
Q 3200 3197 3328 2828 
z
" transform="scale(0.015625)"/>
      </defs>
      <use xlink:href="#DejaVuSans-49"/>
      <use xlink:href="#DejaVuSans-74" x="29.492188"/>
      <use xlink:href="#DejaVuSans-65" x="68.701172"/>
      <use xlink:href="#DejaVuSans-6c" x="130.224609"/>
      <use xlink:href="#DejaVuSans-20" x="158.007812"/>
      <use xlink:href="#DejaVuSans-4d" x="189.794922"/>
      <use xlink:href="#DejaVuSans-6f" x="276.074219"/>
      <use xlink:href="#DejaVuSans-62" x="337.255859"/>
      <use xlink:href="#DejaVuSans-69" x="400.732422"/>
      <use xlink:href="#DejaVuSans-6c" x="428.515625"/>
      <use xlink:href="#DejaVuSans-65" x="456.298828"/>
      <use xlink:href="#DejaVuSans-20" x="517.822266"/>
      <use xlink:href="#DejaVuSans-4c" x="549.609375"/>
      <use xlink:href="#DejaVuSans-69" x="605.322266"/>
      <use xlink:href="#DejaVuSans-6d" x="633.105469"/>
      <use xlink:href="#DejaVuSans-69" x="730.517578"/>
      <use xlink:href="#DejaVuSans-74" x="758.300781"/>
      <use xlink:href="#DejaVuSans-65" x="797.509766"/>
      <use xlink:href="#DejaVuSans-64" x="859.033203"/>
     </g>
    </g>
    <g id="patch_38">
     <path d="M 314.604 82.458394 
L 324.604 82.458394 
L 324.604 78.958394 
L 314.604 78.958394 
z
" style="fill: #e377c2"/>
    </g>
    <g id="text_8">
     <!-- Move Innovation -->
     <g transform="translate(328.604 82.458394) scale(0.05 -0.05)">
      <defs>
       <path id="DejaVuSans-76" d="M 191 3500 
L 800 3500 
L 1894 563 
L 2988 3500 
L 3597 3500 
L 2284 0 
L 1503 0 
L 191 3500 
z
" transform="scale(0.015625)"/>
      </defs>
      <use xlink:href="#DejaVuSans-4d"/>
      <use xlink:href="#DejaVuSans-6f" x="86.279297"/>
      <use xlink:href="#DejaVuSans-76" x="147.460938"/>
      <use xlink:href="#DejaVuSans-65" x="206.640625"/>
      <use xlink:href="#DejaVuSans-20" x="268.164062"/>
      <use xlink:href="#DejaVuSans-49" x="299.951172"/>
      <use xlink:href="#DejaVuSans-6e" x="329.443359"/>
      <use xlink:href="#DejaVuSans-6e" x="392.822266"/>
      <use xlink:href="#DejaVuSans-6f" x="456.201172"/>
      <use xlink:href="#DejaVuSans-76" x="517.382812"/>
      <use xlink:href="#DejaVuSans-61" x="576.5625"/>
      <use xlink:href="#DejaVuSans-74" x="637.841797"/>
      <use xlink:href="#DejaVuSans-69" x="677.050781"/>
      <use xlink:href="#DejaVuSans-6f" x="704.833984"/>
      <use xlink:href="#DejaVuSans-6e" x="766.015625"/>
     </g>
    </g>
    <g id="patch_39">
     <path d="M 314.604 89.797456 
L 324.604 89.797456 
L 324.604 86.297456 
L 314.604 86.297456 
z
" style="fill: #7f7f7f"/>
    </g>
    <g id="text_9">
     <!-- Razer Inc -->
     <g transform="translate(328.604 89.797456) scale(0.05 -0.05)">
      <defs>
       <path id="DejaVuSans-52" d="M 2841 2188 
Q 3044 2119 3236 1894 
Q 3428 1669 3622 1275 
L 4263 0 
L 3584 0 
L 2988 1197 
Q 2756 1666 2539 1819 
Q 2322 1972 1947 1972 
L 1259 1972 
L 1259 0 
L 628 0 
L 628 4666 
L 2053 4666 
Q 2853 4666 3247 4331 
Q 3641 3997 3641 3322 
Q 3641 2881 3436 2590 
Q 3231 2300 2841 2188 
z
M 1259 4147 
L 1259 2491 
L 2053 2491 
Q 2509 2491 2742 2702 
Q 2975 2913 2975 3322 
Q 2975 3731 2742 3939 
Q 2509 4147 2053 4147 
L 1259 4147 
z
" transform="scale(0.015625)"/>
       <path id="DejaVuSans-7a" d="M 353 3500 
L 3084 3500 
L 3084 2975 
L 922 459 
L 3084 459 
L 3084 0 
L 275 0 
L 275 525 
L 2438 3041 
L 353 3041 
L 353 3500 
z
" transform="scale(0.015625)"/>
      </defs>
      <use xlink:href="#DejaVuSans-52"/>
      <use xlink:href="#DejaVuSans-61" x="67.232422"/>
      <use xlink:href="#DejaVuSans-7a" x="128.511719"/>
      <use xlink:href="#DejaVuSans-65" x="181.001953"/>
      <use xlink:href="#DejaVuSans-72" x="242.525391"/>
      <use xlink:href="#DejaVuSans-20" x="283.638672"/>
      <use xlink:href="#DejaVuSans-49" x="315.425781"/>
      <use xlink:href="#DejaVuSans-6e" x="344.917969"/>
      <use xlink:href="#DejaVuSans-63" x="408.296875"/>
     </g>
    </g>
    <g id="patch_40">
     <path d="M 314.604 97.136519 
L 324.604 97.136519 
L 324.604 93.636519 
L 314.604 93.636519 
z
" style="fill: #bcbd22"/>
    </g>
    <g id="text_10">
     <!-- Shanghai Nutshell Electronic Ltd -->
     <g transform="translate(328.604 97.136519) scale(0.05 -0.05)">
      <defs>
       <path id="DejaVuSans-53" d="M 3425 4513 
L 3425 3897 
Q 3066 4069 2747 4153 
Q 2428 4238 2131 4238 
Q 1616 4238 1336 4038 
Q 1056 3838 1056 3469 
Q 1056 3159 1242 3001 
Q 1428 2844 1947 2747 
L 2328 2669 
Q 3034 2534 3370 2195 
Q 3706 1856 3706 1288 
Q 3706 609 3251 259 
Q 2797 -91 1919 -91 
Q 1588 -91 1214 -16 
Q 841 59 441 206 
L 441 856 
Q 825 641 1194 531 
Q 1563 422 1919 422 
Q 2459 422 2753 634 
Q 3047 847 3047 1241 
Q 3047 1584 2836 1778 
Q 2625 1972 2144 2069 
L 1759 2144 
Q 1053 2284 737 2584 
Q 422 2884 422 3419 
Q 422 4038 858 4394 
Q 1294 4750 2059 4750 
Q 2388 4750 2728 4690 
Q 3069 4631 3425 4513 
z
" transform="scale(0.015625)"/>
       <path id="DejaVuSans-4e" d="M 628 4666 
L 1478 4666 
L 3547 763 
L 3547 4666 
L 4159 4666 
L 4159 0 
L 3309 0 
L 1241 3903 
L 1241 0 
L 628 0 
L 628 4666 
z
" transform="scale(0.015625)"/>
      </defs>
      <use xlink:href="#DejaVuSans-53"/>
      <use xlink:href="#DejaVuSans-68" x="63.476562"/>
      <use xlink:href="#DejaVuSans-61" x="126.855469"/>
      <use xlink:href="#DejaVuSans-6e" x="188.134766"/>
      <use xlink:href="#DejaVuSans-67" x="251.513672"/>
      <use xlink:href="#DejaVuSans-68" x="314.990234"/>
      <use xlink:href="#DejaVuSans-61" x="378.369141"/>
      <use xlink:href="#DejaVuSans-69" x="439.648438"/>
      <use xlink:href="#DejaVuSans-20" x="467.431641"/>
      <use xlink:href="#DejaVuSans-4e" x="499.21875"/>
      <use xlink:href="#DejaVuSans-75" x="574.023438"/>
      <use xlink:href="#DejaVuSans-74" x="637.402344"/>
      <use xlink:href="#DejaVuSans-73" x="676.611328"/>
      <use xlink:href="#DejaVuSans-68" x="728.710938"/>
      <use xlink:href="#DejaVuSans-65" x="792.089844"/>
      <use xlink:href="#DejaVuSans-6c" x="853.613281"/>
      <use xlink:href="#DejaVuSans-6c" x="881.396484"/>
      <use xlink:href="#DejaVuSans-20" x="909.179688"/>
      <use xlink:href="#DejaVuSans-45" x="940.966797"/>
      <use xlink:href="#DejaVuSans-6c" x="1004.150391"/>
      <use xlink:href="#DejaVuSans-65" x="1031.933594"/>
      <use xlink:href="#DejaVuSans-63" x="1093.457031"/>
      <use xlink:href="#DejaVuSans-74" x="1148.4375"/>
      <use xlink:href="#DejaVuSans-72" x="1187.646484"/>
      <use xlink:href="#DejaVuSans-6f" x="1226.509766"/>
      <use xlink:href="#DejaVuSans-6e" x="1287.691406"/>
      <use xlink:href="#DejaVuSans-69" x="1351.070312"/>
      <use xlink:href="#DejaVuSans-63" x="1378.853516"/>
      <use xlink:href="#DejaVuSans-20" x="1433.833984"/>
      <use xlink:href="#DejaVuSans-4c" x="1465.621094"/>
      <use xlink:href="#DejaVuSans-74" x="1521.333984"/>
      <use xlink:href="#DejaVuSans-64" x="1560.542969"/>
     </g>
    </g>
    <g id="patch_41">
     <path d="M 314.604 104.475581 
L 324.604 104.475581 
L 324.604 100.975581 
L 314.604 100.975581 
z
" style="fill: #17becf"/>
    </g>
    <g id="text_11">
     <!-- Euphonix Inc. -->
     <g transform="translate(328.604 104.475581) scale(0.05 -0.05)">
      <defs>
       <path id="DejaVuSans-78" d="M 3513 3500 
L 2247 1797 
L 3578 0 
L 2900 0 
L 1881 1375 
L 863 0 
L 184 0 
L 1544 1831 
L 300 3500 
L 978 3500 
L 1906 2253 
L 2834 3500 
L 3513 3500 
z
" transform="scale(0.015625)"/>
      </defs>
      <use xlink:href="#DejaVuSans-45"/>
      <use xlink:href="#DejaVuSans-75" x="63.183594"/>
      <use xlink:href="#DejaVuSans-70" x="126.5625"/>
      <use xlink:href="#DejaVuSans-68" x="190.039062"/>
      <use xlink:href="#DejaVuSans-6f" x="253.417969"/>
      <use xlink:href="#DejaVuSans-6e" x="314.599609"/>
      <use xlink:href="#DejaVuSans-69" x="377.978516"/>
      <use xlink:href="#DejaVuSans-78" x="405.761719"/>
      <use xlink:href="#DejaVuSans-20" x="464.941406"/>
      <use xlink:href="#DejaVuSans-49" x="496.728516"/>
      <use xlink:href="#DejaVuSans-6e" x="526.220703"/>
      <use xlink:href="#DejaVuSans-63" x="589.599609"/>
      <use xlink:href="#DejaVuSans-2e" x="644.580078"/>
     </g>
    </g>
    <g id="patch_42">
     <path d="M 314.604 111.814644 
L 324.604 111.814644 
L 324.604 108.314644 
L 314.604 108.314644 
z
" style="fill: #1f77b4"/>
    </g>
    <g id="text_12">
     <!-- Sennheiser electronic GmbH &amp; Co. KG -->
     <g transform="translate(328.604 111.814644) scale(0.05 -0.05)">
      <defs>
       <path id="DejaVuSans-47" d="M 3809 666 
L 3809 1919 
L 2778 1919 
L 2778 2438 
L 4434 2438 
L 4434 434 
Q 4069 175 3628 42 
Q 3188 -91 2688 -91 
Q 1594 -91 976 548 
Q 359 1188 359 2328 
Q 359 3472 976 4111 
Q 1594 4750 2688 4750 
Q 3144 4750 3555 4637 
Q 3966 4525 4313 4306 
L 4313 3634 
Q 3963 3931 3569 4081 
Q 3175 4231 2741 4231 
Q 1884 4231 1454 3753 
Q 1025 3275 1025 2328 
Q 1025 1384 1454 906 
Q 1884 428 2741 428 
Q 3075 428 3337 486 
Q 3600 544 3809 666 
z
" transform="scale(0.015625)"/>
       <path id="DejaVuSans-48" d="M 628 4666 
L 1259 4666 
L 1259 2753 
L 3553 2753 
L 3553 4666 
L 4184 4666 
L 4184 0 
L 3553 0 
L 3553 2222 
L 1259 2222 
L 1259 0 
L 628 0 
L 628 4666 
z
" transform="scale(0.015625)"/>
       <path id="DejaVuSans-26" d="M 1556 2509 
Q 1272 2256 1139 2004 
Q 1006 1753 1006 1478 
Q 1006 1022 1337 719 
Q 1669 416 2169 416 
Q 2466 416 2725 514 
Q 2984 613 3213 813 
L 1556 2509 
z
M 1997 2859 
L 3584 1234 
Q 3769 1513 3872 1830 
Q 3975 2147 3994 2503 
L 4575 2503 
Q 4538 2091 4375 1687 
Q 4213 1284 3922 891 
L 4794 0 
L 4006 0 
L 3559 459 
Q 3234 181 2878 45 
Q 2522 -91 2113 -91 
Q 1359 -91 881 339 
Q 403 769 403 1441 
Q 403 1841 612 2192 
Q 822 2544 1241 2853 
Q 1091 3050 1012 3245 
Q 934 3441 934 3628 
Q 934 4134 1281 4442 
Q 1628 4750 2203 4750 
Q 2463 4750 2720 4694 
Q 2978 4638 3244 4525 
L 3244 3956 
Q 2972 4103 2725 4179 
Q 2478 4256 2266 4256 
Q 1938 4256 1733 4082 
Q 1528 3909 1528 3634 
Q 1528 3475 1620 3314 
Q 1713 3153 1997 2859 
z
" transform="scale(0.015625)"/>
       <path id="DejaVuSans-4b" d="M 628 4666 
L 1259 4666 
L 1259 2694 
L 3353 4666 
L 4166 4666 
L 1850 2491 
L 4331 0 
L 3500 0 
L 1259 2247 
L 1259 0 
L 628 0 
L 628 4666 
z
" transform="scale(0.015625)"/>
      </defs>
      <use xlink:href="#DejaVuSans-53"/>
      <use xlink:href="#DejaVuSans-65" x="63.476562"/>
      <use xlink:href="#DejaVuSans-6e" x="125"/>
      <use xlink:href="#DejaVuSans-6e" x="188.378906"/>
      <use xlink:href="#DejaVuSans-68" x="251.757812"/>
      <use xlink:href="#DejaVuSans-65" x="315.136719"/>
      <use xlink:href="#DejaVuSans-69" x="376.660156"/>
      <use xlink:href="#DejaVuSans-73" x="404.443359"/>
      <use xlink:href="#DejaVuSans-65" x="456.542969"/>
      <use xlink:href="#DejaVuSans-72" x="518.066406"/>
      <use xlink:href="#DejaVuSans-20" x="559.179688"/>
      <use xlink:href="#DejaVuSans-65" x="590.966797"/>
      <use xlink:href="#DejaVuSans-6c" x="652.490234"/>
      <use xlink:href="#DejaVuSans-65" x="680.273438"/>
      <use xlink:href="#DejaVuSans-63" x="741.796875"/>
      <use xlink:href="#DejaVuSans-74" x="796.777344"/>
      <use xlink:href="#DejaVuSans-72" x="835.986328"/>
      <use xlink:href="#DejaVuSans-6f" x="874.849609"/>
      <use xlink:href="#DejaVuSans-6e" x="936.03125"/>
      <use xlink:href="#DejaVuSans-69" x="999.410156"/>
      <use xlink:href="#DejaVuSans-63" x="1027.193359"/>
      <use xlink:href="#DejaVuSans-20" x="1082.173828"/>
      <use xlink:href="#DejaVuSans-47" x="1113.960938"/>
      <use xlink:href="#DejaVuSans-6d" x="1191.451172"/>
      <use xlink:href="#DejaVuSans-62" x="1288.863281"/>
      <use xlink:href="#DejaVuSans-48" x="1352.339844"/>
      <use xlink:href="#DejaVuSans-20" x="1427.535156"/>
      <use xlink:href="#DejaVuSans-26" x="1459.322266"/>
      <use xlink:href="#DejaVuSans-20" x="1537.300781"/>
      <use xlink:href="#DejaVuSans-43" x="1569.087891"/>
      <use xlink:href="#DejaVuSans-6f" x="1638.912109"/>
      <use xlink:href="#DejaVuSans-2e" x="1698.34375"/>
      <use xlink:href="#DejaVuSans-20" x="1730.130859"/>
      <use xlink:href="#DejaVuSans-4b" x="1761.917969"/>
      <use xlink:href="#DejaVuSans-47" x="1827.494141"/>
     </g>
    </g>
    <g id="patch_43">
     <path d="M 314.604 119.153706 
L 324.604 119.153706 
L 324.604 115.653706 
L 314.604 115.653706 
z
" style="fill: #ff7f0e"/>
    </g>
    <g id="text_13">
     <!-- Toplink C&amp;C Corporation -->
     <g transform="translate(328.604 119.153706) scale(0.05 -0.05)">
      <defs>
       <path id="DejaVuSans-6b" d="M 581 4863 
L 1159 4863 
L 1159 1991 
L 2875 3500 
L 3609 3500 
L 1753 1863 
L 3688 0 
L 2938 0 
L 1159 1709 
L 1159 0 
L 581 0 
L 581 4863 
z
" transform="scale(0.015625)"/>
      </defs>
      <use xlink:href="#DejaVuSans-54"/>
      <use xlink:href="#DejaVuSans-6f" x="44.083984"/>
      <use xlink:href="#DejaVuSans-70" x="105.265625"/>
      <use xlink:href="#DejaVuSans-6c" x="168.742188"/>
      <use xlink:href="#DejaVuSans-69" x="196.525391"/>
      <use xlink:href="#DejaVuSans-6e" x="224.308594"/>
      <use xlink:href="#DejaVuSans-6b" x="287.6875"/>
      <use xlink:href="#DejaVuSans-20" x="345.597656"/>
      <use xlink:href="#DejaVuSans-43" x="377.384766"/>
      <use xlink:href="#DejaVuSans-26" x="447.208984"/>
      <use xlink:href="#DejaVuSans-43" x="525.1875"/>
      <use xlink:href="#DejaVuSans-20" x="595.011719"/>
      <use xlink:href="#DejaVuSans-43" x="626.798828"/>
      <use xlink:href="#DejaVuSans-6f" x="696.623047"/>
      <use xlink:href="#DejaVuSans-72" x="757.804688"/>
      <use xlink:href="#DejaVuSans-70" x="798.917969"/>
      <use xlink:href="#DejaVuSans-6f" x="862.394531"/>
      <use xlink:href="#DejaVuSans-72" x="923.576172"/>
      <use xlink:href="#DejaVuSans-61" x="964.689453"/>
      <use xlink:href="#DejaVuSans-74" x="1025.96875"/>
      <use xlink:href="#DejaVuSans-69" x="1065.177734"/>
      <use xlink:href="#DejaVuSans-6f" x="1092.960938"/>
      <use xlink:href="#DejaVuSans-6e" x="1154.142578"/>
     </g>
    </g>
    <g id="patch_44">
     <path d="M 314.604 126.492769 
L 324.604 126.492769 
L 324.604 122.992769 
L 314.604 122.992769 
z
" style="fill: #2ca02c"/>
    </g>
    <g id="text_14">
     <!-- Juniper Networks -->
     <g transform="translate(328.604 126.492769) scale(0.05 -0.05)">
      <defs>
       <path id="DejaVuSans-4a" d="M 628 4666 
L 1259 4666 
L 1259 325 
Q 1259 -519 939 -900 
Q 619 -1281 -91 -1281 
L -331 -1281 
L -331 -750 
L -134 -750 
Q 284 -750 456 -515 
Q 628 -281 628 325 
L 628 4666 
z
" transform="scale(0.015625)"/>
       <path id="DejaVuSans-77" d="M 269 3500 
L 844 3500 
L 1563 769 
L 2278 3500 
L 2956 3500 
L 3675 769 
L 4391 3500 
L 4966 3500 
L 4050 0 
L 3372 0 
L 2619 2869 
L 1863 0 
L 1184 0 
L 269 3500 
z
" transform="scale(0.015625)"/>
      </defs>
      <use xlink:href="#DejaVuSans-4a"/>
      <use xlink:href="#DejaVuSans-75" x="29.492188"/>
      <use xlink:href="#DejaVuSans-6e" x="92.871094"/>
      <use xlink:href="#DejaVuSans-69" x="156.25"/>
      <use xlink:href="#DejaVuSans-70" x="184.033203"/>
      <use xlink:href="#DejaVuSans-65" x="247.509766"/>
      <use xlink:href="#DejaVuSans-72" x="309.033203"/>
      <use xlink:href="#DejaVuSans-20" x="350.146484"/>
      <use xlink:href="#DejaVuSans-4e" x="381.933594"/>
      <use xlink:href="#DejaVuSans-65" x="456.738281"/>
      <use xlink:href="#DejaVuSans-74" x="518.261719"/>
      <use xlink:href="#DejaVuSans-77" x="557.470703"/>
      <use xlink:href="#DejaVuSans-6f" x="639.257812"/>
      <use xlink:href="#DejaVuSans-72" x="700.439453"/>
      <use xlink:href="#DejaVuSans-6b" x="741.552734"/>
      <use xlink:href="#DejaVuSans-73" x="799.462891"/>
     </g>
    </g>
    <g id="patch_45">
     <path d="M 314.604 133.831831 
L 324.604 133.831831 
L 324.604 130.331831 
L 314.604 130.331831 
z
" style="fill: #d62728"/>
    </g>
    <g id="text_15">
     <!-- Lanex Corporation -->
     <g transform="translate(328.604 133.831831) scale(0.05 -0.05)">
      <use xlink:href="#DejaVuSans-4c"/>
      <use xlink:href="#DejaVuSans-61" x="55.712891"/>
      <use xlink:href="#DejaVuSans-6e" x="116.992188"/>
      <use xlink:href="#DejaVuSans-65" x="180.371094"/>
      <use xlink:href="#DejaVuSans-78" x="240.144531"/>
      <use xlink:href="#DejaVuSans-20" x="299.324219"/>
      <use xlink:href="#DejaVuSans-43" x="331.111328"/>
      <use xlink:href="#DejaVuSans-6f" x="400.935547"/>
      <use xlink:href="#DejaVuSans-72" x="462.117188"/>
      <use xlink:href="#DejaVuSans-70" x="503.230469"/>
      <use xlink:href="#DejaVuSans-6f" x="566.707031"/>
      <use xlink:href="#DejaVuSans-72" x="627.888672"/>
      <use xlink:href="#DejaVuSans-61" x="669.001953"/>
      <use xlink:href="#DejaVuSans-74" x="730.28125"/>
      <use xlink:href="#DejaVuSans-69" x="769.490234"/>
      <use xlink:href="#DejaVuSans-6f" x="797.273438"/>
      <use xlink:href="#DejaVuSans-6e" x="858.455078"/>
     </g>
    </g>
    <g id="patch_46">
     <path d="M 314.604 141.170894 
L 324.604 141.170894 
L 324.604 137.670894 
L 314.604 137.670894 
z
" style="fill: #9467bd"/>
    </g>
    <g id="text_16">
     <!-- Firepro Wireless -->
     <g transform="translate(328.604 141.170894) scale(0.05 -0.05)">
      <defs>
       <path id="DejaVuSans-46" d="M 628 4666 
L 3309 4666 
L 3309 4134 
L 1259 4134 
L 1259 2759 
L 3109 2759 
L 3109 2228 
L 1259 2228 
L 1259 0 
L 628 0 
L 628 4666 
z
" transform="scale(0.015625)"/>
      </defs>
      <use xlink:href="#DejaVuSans-46"/>
      <use xlink:href="#DejaVuSans-69" x="50.269531"/>
      <use xlink:href="#DejaVuSans-72" x="78.052734"/>
      <use xlink:href="#DejaVuSans-65" x="116.916016"/>
      <use xlink:href="#DejaVuSans-70" x="178.439453"/>
      <use xlink:href="#DejaVuSans-72" x="241.916016"/>
      <use xlink:href="#DejaVuSans-6f" x="280.779297"/>
      <use xlink:href="#DejaVuSans-20" x="341.960938"/>
      <use xlink:href="#DejaVuSans-57" x="373.748047"/>
      <use xlink:href="#DejaVuSans-69" x="470.375"/>
      <use xlink:href="#DejaVuSans-72" x="498.158203"/>
      <use xlink:href="#DejaVuSans-65" x="537.021484"/>
      <use xlink:href="#DejaVuSans-6c" x="598.544922"/>
      <use xlink:href="#DejaVuSans-65" x="626.328125"/>
      <use xlink:href="#DejaVuSans-73" x="687.851562"/>
      <use xlink:href="#DejaVuSans-73" x="739.951172"/>
     </g>
    </g>
    <g id="patch_47">
     <path d="M 314.604 148.509956 
L 324.604 148.509956 
L 324.604 145.009956 
L 314.604 145.009956 
z
" style="fill: #8c564b"/>
    </g>
    <g id="text_17">
     <!-- e-Net Inc. -->
     <g transform="translate(328.604 148.509956) scale(0.05 -0.05)">
      <defs>
       <path id="DejaVuSans-2d" d="M 313 2009 
L 1997 2009 
L 1997 1497 
L 313 1497 
L 313 2009 
z
" transform="scale(0.015625)"/>
      </defs>
      <use xlink:href="#DejaVuSans-65"/>
      <use xlink:href="#DejaVuSans-2d" x="61.523438"/>
      <use xlink:href="#DejaVuSans-4e" x="97.607422"/>
      <use xlink:href="#DejaVuSans-65" x="172.412109"/>
      <use xlink:href="#DejaVuSans-74" x="233.935547"/>
      <use xlink:href="#DejaVuSans-20" x="273.144531"/>
      <use xlink:href="#DejaVuSans-49" x="304.931641"/>
      <use xlink:href="#DejaVuSans-6e" x="334.423828"/>
      <use xlink:href="#DejaVuSans-63" x="397.802734"/>
      <use xlink:href="#DejaVuSans-2e" x="452.783203"/>
     </g>
    </g>
    <g id="patch_48">
     <path d="M 314.604 155.849019 
L 324.604 155.849019 
L 324.604 152.349019 
L 314.604 152.349019 
z
" style="fill: #e377c2"/>
    </g>
    <g id="text_18">
     <!-- ZTE Corporation -->
     <g transform="translate(328.604 155.849019) scale(0.05 -0.05)">
      <defs>
       <path id="DejaVuSans-5a" d="M 359 4666 
L 4025 4666 
L 4025 4184 
L 1075 531 
L 4097 531 
L 4097 0 
L 288 0 
L 288 481 
L 3238 4134 
L 359 4134 
L 359 4666 
z
" transform="scale(0.015625)"/>
      </defs>
      <use xlink:href="#DejaVuSans-5a"/>
      <use xlink:href="#DejaVuSans-54" x="68.505859"/>
      <use xlink:href="#DejaVuSans-45" x="129.589844"/>
      <use xlink:href="#DejaVuSans-20" x="192.773438"/>
      <use xlink:href="#DejaVuSans-43" x="224.560547"/>
      <use xlink:href="#DejaVuSans-6f" x="294.384766"/>
      <use xlink:href="#DejaVuSans-72" x="355.566406"/>
      <use xlink:href="#DejaVuSans-70" x="396.679688"/>
      <use xlink:href="#DejaVuSans-6f" x="460.15625"/>
      <use xlink:href="#DejaVuSans-72" x="521.337891"/>
      <use xlink:href="#DejaVuSans-61" x="562.451172"/>
      <use xlink:href="#DejaVuSans-74" x="623.730469"/>
      <use xlink:href="#DejaVuSans-69" x="662.939453"/>
      <use xlink:href="#DejaVuSans-6f" x="690.722656"/>
      <use xlink:href="#DejaVuSans-6e" x="751.904297"/>
     </g>
    </g>
    <g id="patch_49">
     <path d="M 314.604 163.188081 
L 324.604 163.188081 
L 324.604 159.688081 
L 314.604 159.688081 
z
" style="fill: #7f7f7f"/>
    </g>
    <g id="text_19">
     <!-- Samsung Electronics Ltd -->
     <g transform="translate(328.604 163.188081) scale(0.05 -0.05)">
      <use xlink:href="#DejaVuSans-53"/>
      <use xlink:href="#DejaVuSans-61" x="63.476562"/>
      <use xlink:href="#DejaVuSans-6d" x="124.755859"/>
      <use xlink:href="#DejaVuSans-73" x="222.167969"/>
      <use xlink:href="#DejaVuSans-75" x="274.267578"/>
      <use xlink:href="#DejaVuSans-6e" x="337.646484"/>
      <use xlink:href="#DejaVuSans-67" x="401.025391"/>
      <use xlink:href="#DejaVuSans-20" x="464.501953"/>
      <use xlink:href="#DejaVuSans-45" x="496.289062"/>
      <use xlink:href="#DejaVuSans-6c" x="559.472656"/>
      <use xlink:href="#DejaVuSans-65" x="587.255859"/>
      <use xlink:href="#DejaVuSans-63" x="648.779297"/>
      <use xlink:href="#DejaVuSans-74" x="703.759766"/>
      <use xlink:href="#DejaVuSans-72" x="742.96875"/>
      <use xlink:href="#DejaVuSans-6f" x="781.832031"/>
      <use xlink:href="#DejaVuSans-6e" x="843.013672"/>
      <use xlink:href="#DejaVuSans-69" x="906.392578"/>
      <use xlink:href="#DejaVuSans-63" x="934.175781"/>
      <use xlink:href="#DejaVuSans-73" x="989.15625"/>
      <use xlink:href="#DejaVuSans-20" x="1041.255859"/>
      <use xlink:href="#DejaVuSans-4c" x="1073.042969"/>
      <use xlink:href="#DejaVuSans-74" x="1128.755859"/>
      <use xlink:href="#DejaVuSans-64" x="1167.964844"/>
     </g>
    </g>
    <g id="patch_50">
     <path d="M 314.604 170.527144 
L 324.604 170.527144 
L 324.604 167.027144 
L 314.604 167.027144 
z
" style="fill: #bcbd22"/>
    </g>
    <g id="text_20">
     <!-- Pronet GmbH -->
     <g transform="translate(328.604 170.527144) scale(0.05 -0.05)">
      <defs>
       <path id="DejaVuSans-50" d="M 1259 4147 
L 1259 2394 
L 2053 2394 
Q 2494 2394 2734 2622 
Q 2975 2850 2975 3272 
Q 2975 3691 2734 3919 
Q 2494 4147 2053 4147 
L 1259 4147 
z
M 628 4666 
L 2053 4666 
Q 2838 4666 3239 4311 
Q 3641 3956 3641 3272 
Q 3641 2581 3239 2228 
Q 2838 1875 2053 1875 
L 1259 1875 
L 1259 0 
L 628 0 
L 628 4666 
z
" transform="scale(0.015625)"/>
      </defs>
      <use xlink:href="#DejaVuSans-50"/>
      <use xlink:href="#DejaVuSans-72" x="58.552734"/>
      <use xlink:href="#DejaVuSans-6f" x="97.416016"/>
      <use xlink:href="#DejaVuSans-6e" x="158.597656"/>
      <use xlink:href="#DejaVuSans-65" x="221.976562"/>
      <use xlink:href="#DejaVuSans-74" x="283.5"/>
      <use xlink:href="#DejaVuSans-20" x="322.708984"/>
      <use xlink:href="#DejaVuSans-47" x="354.496094"/>
      <use xlink:href="#DejaVuSans-6d" x="431.986328"/>
      <use xlink:href="#DejaVuSans-62" x="529.398438"/>
      <use xlink:href="#DejaVuSans-48" x="592.875"/>
     </g>
    </g>
    <g id="patch_51">
     <path d="M 314.604 177.866206 
L 324.604 177.866206 
L 324.604 174.366206 
L 314.604 174.366206 
z
" style="fill: #17becf"/>
    </g>
    <g id="text_21">
     <!-- TP-Link Technologies Ltd -->
     <g transform="translate(328.604 177.866206) scale(0.05 -0.05)">
      <use xlink:href="#DejaVuSans-54"/>
      <use xlink:href="#DejaVuSans-50" x="61.083984"/>
      <use xlink:href="#DejaVuSans-2d" x="119.136719"/>
      <use xlink:href="#DejaVuSans-4c" x="155.220703"/>
      <use xlink:href="#DejaVuSans-69" x="210.933594"/>
      <use xlink:href="#DejaVuSans-6e" x="238.716797"/>
      <use xlink:href="#DejaVuSans-6b" x="302.095703"/>
      <use xlink:href="#DejaVuSans-20" x="360.005859"/>
      <use xlink:href="#DejaVuSans-54" x="391.792969"/>
      <use xlink:href="#DejaVuSans-65" x="435.876953"/>
      <use xlink:href="#DejaVuSans-63" x="497.400391"/>
      <use xlink:href="#DejaVuSans-68" x="552.380859"/>
      <use xlink:href="#DejaVuSans-6e" x="615.759766"/>
      <use xlink:href="#DejaVuSans-6f" x="679.138672"/>
      <use xlink:href="#DejaVuSans-6c" x="740.320312"/>
      <use xlink:href="#DejaVuSans-6f" x="768.103516"/>
      <use xlink:href="#DejaVuSans-67" x="829.285156"/>
      <use xlink:href="#DejaVuSans-69" x="892.761719"/>
      <use xlink:href="#DejaVuSans-65" x="920.544922"/>
      <use xlink:href="#DejaVuSans-73" x="982.068359"/>
      <use xlink:href="#DejaVuSans-20" x="1034.167969"/>
      <use xlink:href="#DejaVuSans-4c" x="1065.955078"/>
      <use xlink:href="#DejaVuSans-74" x="1121.667969"/>
      <use xlink:href="#DejaVuSans-64" x="1160.876953"/>
     </g>
    </g>
    <g id="patch_52">
     <path d="M 314.604 185.205269 
L 324.604 185.205269 
L 324.604 181.705269 
L 314.604 181.705269 
z
" style="fill: #1f77b4"/>
    </g>
    <g id="text_22">
     <!-- Hewlett-Packard Company -->
     <g transform="translate(328.604 185.205269) scale(0.05 -0.05)">
      <use xlink:href="#DejaVuSans-48"/>
      <use xlink:href="#DejaVuSans-65" x="75.195312"/>
      <use xlink:href="#DejaVuSans-77" x="136.71875"/>
      <use xlink:href="#DejaVuSans-6c" x="218.505859"/>
      <use xlink:href="#DejaVuSans-65" x="246.289062"/>
      <use xlink:href="#DejaVuSans-74" x="307.8125"/>
      <use xlink:href="#DejaVuSans-74" x="347.021484"/>
      <use xlink:href="#DejaVuSans-2d" x="386.230469"/>
      <use xlink:href="#DejaVuSans-50" x="422.314453"/>
      <use xlink:href="#DejaVuSans-61" x="478.117188"/>
      <use xlink:href="#DejaVuSans-63" x="539.396484"/>
      <use xlink:href="#DejaVuSans-6b" x="594.376953"/>
      <use xlink:href="#DejaVuSans-61" x="650.537109"/>
      <use xlink:href="#DejaVuSans-72" x="711.816406"/>
      <use xlink:href="#DejaVuSans-64" x="751.179688"/>
      <use xlink:href="#DejaVuSans-20" x="814.65625"/>
      <use xlink:href="#DejaVuSans-43" x="846.443359"/>
      <use xlink:href="#DejaVuSans-6f" x="916.267578"/>
      <use xlink:href="#DejaVuSans-6d" x="977.449219"/>
      <use xlink:href="#DejaVuSans-70" x="1074.861328"/>
      <use xlink:href="#DejaVuSans-61" x="1138.337891"/>
      <use xlink:href="#DejaVuSans-6e" x="1199.617188"/>
      <use xlink:href="#DejaVuSans-79" x="1262.996094"/>
     </g>
    </g>
    <g id="patch_53">
     <path d="M 314.604 192.544331 
L 324.604 192.544331 
L 324.604 189.044331 
L 314.604 189.044331 
z
" style="fill: #ff7f0e"/>
    </g>
    <g id="text_23">
     <!-- IEEE Registration Authority -->
     <g transform="translate(328.604 192.544331) scale(0.05 -0.05)">
      <use xlink:href="#DejaVuSans-49"/>
      <use xlink:href="#DejaVuSans-45" x="29.492188"/>
      <use xlink:href="#DejaVuSans-45" x="92.675781"/>
      <use xlink:href="#DejaVuSans-45" x="155.859375"/>
      <use xlink:href="#DejaVuSans-20" x="219.042969"/>
      <use xlink:href="#DejaVuSans-52" x="250.830078"/>
      <use xlink:href="#DejaVuSans-65" x="315.8125"/>
      <use xlink:href="#DejaVuSans-67" x="377.335938"/>
      <use xlink:href="#DejaVuSans-69" x="440.8125"/>
      <use xlink:href="#DejaVuSans-73" x="468.595703"/>
      <use xlink:href="#DejaVuSans-74" x="520.695312"/>
      <use xlink:href="#DejaVuSans-72" x="559.904297"/>
      <use xlink:href="#DejaVuSans-61" x="601.017578"/>
      <use xlink:href="#DejaVuSans-74" x="662.296875"/>
      <use xlink:href="#DejaVuSans-69" x="701.505859"/>
      <use xlink:href="#DejaVuSans-6f" x="729.289062"/>
      <use xlink:href="#DejaVuSans-6e" x="790.470703"/>
      <use xlink:href="#DejaVuSans-20" x="853.849609"/>
      <use xlink:href="#DejaVuSans-41" x="885.636719"/>
      <use xlink:href="#DejaVuSans-75" x="954.044922"/>
      <use xlink:href="#DejaVuSans-74" x="1017.423828"/>
      <use xlink:href="#DejaVuSans-68" x="1056.632812"/>
      <use xlink:href="#DejaVuSans-6f" x="1120.011719"/>
      <use xlink:href="#DejaVuSans-72" x="1181.193359"/>
      <use xlink:href="#DejaVuSans-69" x="1222.306641"/>
      <use xlink:href="#DejaVuSans-74" x="1250.089844"/>
      <use xlink:href="#DejaVuSans-79" x="1289.298828"/>
     </g>
    </g>
    <g id="patch_54">
     <path d="M 314.604 199.883394 
L 324.604 199.883394 
L 324.604 196.383394 
L 314.604 196.383394 
z
" style="fill: #2ca02c"/>
    </g>
    <g id="text_24">
     <!-- Amazon.com LLC -->
     <g transform="translate(328.604 199.883394) scale(0.05 -0.05)">
      <use xlink:href="#DejaVuSans-41"/>
      <use xlink:href="#DejaVuSans-6d" x="68.408203"/>
      <use xlink:href="#DejaVuSans-61" x="165.820312"/>
      <use xlink:href="#DejaVuSans-7a" x="227.099609"/>
      <use xlink:href="#DejaVuSans-6f" x="279.589844"/>
      <use xlink:href="#DejaVuSans-6e" x="340.771484"/>
      <use xlink:href="#DejaVuSans-2e" x="404.150391"/>
      <use xlink:href="#DejaVuSans-63" x="435.9375"/>
      <use xlink:href="#DejaVuSans-6f" x="490.917969"/>
      <use xlink:href="#DejaVuSans-6d" x="552.099609"/>
      <use xlink:href="#DejaVuSans-20" x="649.511719"/>
      <use xlink:href="#DejaVuSans-4c" x="681.298828"/>
      <use xlink:href="#DejaVuSans-4c" x="737.011719"/>
      <use xlink:href="#DejaVuSans-43" x="792.724609"/>
     </g>
    </g>
    <g id="patch_55">
     <path d="M 314.604 207.222456 
L 324.604 207.222456 
L 324.604 203.722456 
L 314.604 203.722456 
z
" style="fill: #d62728"/>
    </g>
    <g id="text_25">
     <!-- StreamUnlimited Engineering GmbH -->
     <g transform="translate(328.604 207.222456) scale(0.05 -0.05)">
      <defs>
       <path id="DejaVuSans-55" d="M 556 4666 
L 1191 4666 
L 1191 1831 
Q 1191 1081 1462 751 
Q 1734 422 2344 422 
Q 2950 422 3222 751 
Q 3494 1081 3494 1831 
L 3494 4666 
L 4128 4666 
L 4128 1753 
Q 4128 841 3676 375 
Q 3225 -91 2344 -91 
Q 1459 -91 1007 375 
Q 556 841 556 1753 
L 556 4666 
z
" transform="scale(0.015625)"/>
      </defs>
      <use xlink:href="#DejaVuSans-53"/>
      <use xlink:href="#DejaVuSans-74" x="63.476562"/>
      <use xlink:href="#DejaVuSans-72" x="102.685547"/>
      <use xlink:href="#DejaVuSans-65" x="141.548828"/>
      <use xlink:href="#DejaVuSans-61" x="203.072266"/>
      <use xlink:href="#DejaVuSans-6d" x="264.351562"/>
      <use xlink:href="#DejaVuSans-55" x="361.763672"/>
      <use xlink:href="#DejaVuSans-6e" x="434.957031"/>
      <use xlink:href="#DejaVuSans-6c" x="498.335938"/>
      <use xlink:href="#DejaVuSans-69" x="526.119141"/>
      <use xlink:href="#DejaVuSans-6d" x="553.902344"/>
      <use xlink:href="#DejaVuSans-69" x="651.314453"/>
      <use xlink:href="#DejaVuSans-74" x="679.097656"/>
      <use xlink:href="#DejaVuSans-65" x="718.306641"/>
      <use xlink:href="#DejaVuSans-64" x="779.830078"/>
      <use xlink:href="#DejaVuSans-20" x="843.306641"/>
      <use xlink:href="#DejaVuSans-45" x="875.09375"/>
      <use xlink:href="#DejaVuSans-6e" x="938.277344"/>
      <use xlink:href="#DejaVuSans-67" x="1001.65625"/>
      <use xlink:href="#DejaVuSans-69" x="1065.132812"/>
      <use xlink:href="#DejaVuSans-6e" x="1092.916016"/>
      <use xlink:href="#DejaVuSans-65" x="1156.294922"/>
      <use xlink:href="#DejaVuSans-65" x="1217.818359"/>
      <use xlink:href="#DejaVuSans-72" x="1279.341797"/>
      <use xlink:href="#DejaVuSans-69" x="1320.455078"/>
      <use xlink:href="#DejaVuSans-6e" x="1348.238281"/>
      <use xlink:href="#DejaVuSans-67" x="1411.617188"/>
      <use xlink:href="#DejaVuSans-20" x="1475.09375"/>
      <use xlink:href="#DejaVuSans-47" x="1506.880859"/>
      <use xlink:href="#DejaVuSans-6d" x="1584.371094"/>
      <use xlink:href="#DejaVuSans-62" x="1681.783203"/>
      <use xlink:href="#DejaVuSans-48" x="1745.259766"/>
     </g>
    </g>
    <g id="patch_56">
     <path d="M 314.604 214.561519 
L 324.604 214.561519 
L 324.604 211.061519 
L 314.604 211.061519 
z
" style="fill: #9467bd"/>
    </g>
    <g id="text_26">
     <!-- Cisco Systems Inc. -->
     <g transform="translate(328.604 214.561519) scale(0.05 -0.05)">
      <use xlink:href="#DejaVuSans-43"/>
      <use xlink:href="#DejaVuSans-69" x="69.824219"/>
      <use xlink:href="#DejaVuSans-73" x="97.607422"/>
      <use xlink:href="#DejaVuSans-63" x="149.707031"/>
      <use xlink:href="#DejaVuSans-6f" x="204.6875"/>
      <use xlink:href="#DejaVuSans-20" x="265.869141"/>
      <use xlink:href="#DejaVuSans-53" x="297.65625"/>
      <use xlink:href="#DejaVuSans-79" x="361.132812"/>
      <use xlink:href="#DejaVuSans-73" x="420.3125"/>
      <use xlink:href="#DejaVuSans-74" x="472.412109"/>
      <use xlink:href="#DejaVuSans-65" x="511.621094"/>
      <use xlink:href="#DejaVuSans-6d" x="573.144531"/>
      <use xlink:href="#DejaVuSans-73" x="670.556641"/>
      <use xlink:href="#DejaVuSans-20" x="722.65625"/>
      <use xlink:href="#DejaVuSans-49" x="754.443359"/>
      <use xlink:href="#DejaVuSans-6e" x="783.935547"/>
      <use xlink:href="#DejaVuSans-63" x="847.314453"/>
      <use xlink:href="#DejaVuSans-2e" x="902.294922"/>
     </g>
    </g>
    <g id="patch_57">
     <path d="M 314.604 221.900581 
L 324.604 221.900581 
L 324.604 218.400581 
L 314.604 218.400581 
z
" style="fill: #8c564b"/>
    </g>
    <g id="text_27">
     <!-- Rayson Technology Ltd -->
     <g transform="translate(328.604 221.900581) scale(0.05 -0.05)">
      <use xlink:href="#DejaVuSans-52"/>
      <use xlink:href="#DejaVuSans-61" x="67.232422"/>
      <use xlink:href="#DejaVuSans-79" x="128.511719"/>
      <use xlink:href="#DejaVuSans-73" x="187.691406"/>
      <use xlink:href="#DejaVuSans-6f" x="239.791016"/>
      <use xlink:href="#DejaVuSans-6e" x="300.972656"/>
      <use xlink:href="#DejaVuSans-20" x="364.351562"/>
      <use xlink:href="#DejaVuSans-54" x="396.138672"/>
      <use xlink:href="#DejaVuSans-65" x="440.222656"/>
      <use xlink:href="#DejaVuSans-63" x="501.746094"/>
      <use xlink:href="#DejaVuSans-68" x="556.726562"/>
      <use xlink:href="#DejaVuSans-6e" x="620.105469"/>
      <use xlink:href="#DejaVuSans-6f" x="683.484375"/>
      <use xlink:href="#DejaVuSans-6c" x="744.666016"/>
      <use xlink:href="#DejaVuSans-6f" x="772.449219"/>
      <use xlink:href="#DejaVuSans-67" x="833.630859"/>
      <use xlink:href="#DejaVuSans-79" x="897.107422"/>
      <use xlink:href="#DejaVuSans-20" x="956.287109"/>
      <use xlink:href="#DejaVuSans-4c" x="988.074219"/>
      <use xlink:href="#DejaVuSans-74" x="1043.787109"/>
      <use xlink:href="#DejaVuSans-64" x="1082.996094"/>
     </g>
    </g>
    <g id="patch_58">
     <path d="M 314.604 229.239644 
L 324.604 229.239644 
L 324.604 225.739644 
L 314.604 225.739644 
z
" style="fill: #e377c2"/>
    </g>
    <g id="text_28">
     <!-- Cambridge Silicon Radio -->
     <g transform="translate(328.604 229.239644) scale(0.05 -0.05)">
      <use xlink:href="#DejaVuSans-43"/>
      <use xlink:href="#DejaVuSans-61" x="69.824219"/>
      <use xlink:href="#DejaVuSans-6d" x="131.103516"/>
      <use xlink:href="#DejaVuSans-62" x="228.515625"/>
      <use xlink:href="#DejaVuSans-72" x="291.992188"/>
      <use xlink:href="#DejaVuSans-69" x="333.105469"/>
      <use xlink:href="#DejaVuSans-64" x="360.888672"/>
      <use xlink:href="#DejaVuSans-67" x="424.365234"/>
      <use xlink:href="#DejaVuSans-65" x="487.841797"/>
      <use xlink:href="#DejaVuSans-20" x="549.365234"/>
      <use xlink:href="#DejaVuSans-53" x="581.152344"/>
      <use xlink:href="#DejaVuSans-69" x="644.628906"/>
      <use xlink:href="#DejaVuSans-6c" x="672.412109"/>
      <use xlink:href="#DejaVuSans-69" x="700.195312"/>
      <use xlink:href="#DejaVuSans-63" x="727.978516"/>
      <use xlink:href="#DejaVuSans-6f" x="782.958984"/>
      <use xlink:href="#DejaVuSans-6e" x="844.140625"/>
      <use xlink:href="#DejaVuSans-20" x="907.519531"/>
      <use xlink:href="#DejaVuSans-52" x="939.306641"/>
      <use xlink:href="#DejaVuSans-61" x="1006.539062"/>
      <use xlink:href="#DejaVuSans-64" x="1067.818359"/>
      <use xlink:href="#DejaVuSans-69" x="1131.294922"/>
      <use xlink:href="#DejaVuSans-6f" x="1159.078125"/>
     </g>
    </g>
    <g id="patch_59">
     <path d="M 314.604 236.578706 
L 324.604 236.578706 
L 324.604 233.078706 
L 314.604 233.078706 
z
" style="fill: #7f7f7f"/>
    </g>
    <g id="text_29">
     <!-- Murata Manufacturing Ltd -->
     <g transform="translate(328.604 236.578706) scale(0.05 -0.05)">
      <use xlink:href="#DejaVuSans-4d"/>
      <use xlink:href="#DejaVuSans-75" x="86.279297"/>
      <use xlink:href="#DejaVuSans-72" x="149.658203"/>
      <use xlink:href="#DejaVuSans-61" x="190.771484"/>
      <use xlink:href="#DejaVuSans-74" x="252.050781"/>
      <use xlink:href="#DejaVuSans-61" x="291.259766"/>
      <use xlink:href="#DejaVuSans-20" x="352.539062"/>
      <use xlink:href="#DejaVuSans-4d" x="384.326172"/>
      <use xlink:href="#DejaVuSans-61" x="470.605469"/>
      <use xlink:href="#DejaVuSans-6e" x="531.884766"/>
      <use xlink:href="#DejaVuSans-75" x="595.263672"/>
      <use xlink:href="#DejaVuSans-66" x="658.642578"/>
      <use xlink:href="#DejaVuSans-61" x="693.847656"/>
      <use xlink:href="#DejaVuSans-63" x="755.126953"/>
      <use xlink:href="#DejaVuSans-74" x="810.107422"/>
      <use xlink:href="#DejaVuSans-75" x="849.316406"/>
      <use xlink:href="#DejaVuSans-72" x="912.695312"/>
      <use xlink:href="#DejaVuSans-69" x="953.808594"/>
      <use xlink:href="#DejaVuSans-6e" x="981.591797"/>
      <use xlink:href="#DejaVuSans-67" x="1044.970703"/>
      <use xlink:href="#DejaVuSans-20" x="1108.447266"/>
      <use xlink:href="#DejaVuSans-4c" x="1140.234375"/>
      <use xlink:href="#DejaVuSans-74" x="1195.947266"/>
      <use xlink:href="#DejaVuSans-64" x="1235.15625"/>
     </g>
    </g>
    <g id="patch_60">
     <path d="M 314.604 243.917769 
L 324.604 243.917769 
L 324.604 240.417769 
L 314.604 240.417769 
z
" style="fill: #bcbd22"/>
    </g>
    <g id="text_30">
     <!-- Azurewave Technologies Inc. -->
     <g transform="translate(328.604 243.917769) scale(0.05 -0.05)">
      <use xlink:href="#DejaVuSans-41"/>
      <use xlink:href="#DejaVuSans-7a" x="68.408203"/>
      <use xlink:href="#DejaVuSans-75" x="120.898438"/>
      <use xlink:href="#DejaVuSans-72" x="184.277344"/>
      <use xlink:href="#DejaVuSans-65" x="223.140625"/>
      <use xlink:href="#DejaVuSans-77" x="284.664062"/>
      <use xlink:href="#DejaVuSans-61" x="366.451172"/>
      <use xlink:href="#DejaVuSans-76" x="427.730469"/>
      <use xlink:href="#DejaVuSans-65" x="486.910156"/>
      <use xlink:href="#DejaVuSans-20" x="548.433594"/>
      <use xlink:href="#DejaVuSans-54" x="580.220703"/>
      <use xlink:href="#DejaVuSans-65" x="624.304688"/>
      <use xlink:href="#DejaVuSans-63" x="685.828125"/>
      <use xlink:href="#DejaVuSans-68" x="740.808594"/>
      <use xlink:href="#DejaVuSans-6e" x="804.1875"/>
      <use xlink:href="#DejaVuSans-6f" x="867.566406"/>
      <use xlink:href="#DejaVuSans-6c" x="928.748047"/>
      <use xlink:href="#DejaVuSans-6f" x="956.53125"/>
      <use xlink:href="#DejaVuSans-67" x="1017.712891"/>
      <use xlink:href="#DejaVuSans-69" x="1081.189453"/>
      <use xlink:href="#DejaVuSans-65" x="1108.972656"/>
      <use xlink:href="#DejaVuSans-73" x="1170.496094"/>
      <use xlink:href="#DejaVuSans-20" x="1222.595703"/>
      <use xlink:href="#DejaVuSans-49" x="1254.382812"/>
      <use xlink:href="#DejaVuSans-6e" x="1283.875"/>
      <use xlink:href="#DejaVuSans-63" x="1347.253906"/>
      <use xlink:href="#DejaVuSans-2e" x="1402.234375"/>
     </g>
    </g>
   </g>
  </g>
 </g>
</svg>
